<svg width="30" height="30" viewBox="0 0 30 30" fill="none" xmlns="http://www.w3.org/2000/svg">
<g clip-path="url(#clip0_316_299)">
<path d="M24.8552 16.2597C24.0951 15.3304 22.8496 14.8228 21.2466 14.7829C21.2024 14.4005 20.878 14.1035 20.4837 14.1035H5.10826C4.68387 14.1035 4.33984 14.4476 4.33984 14.8719V23.7856C4.33984 25.5564 5.32803 27.1424 6.91874 27.9247C6.84159 28.1086 6.80247 28.3034 6.80247 28.5038C6.80247 29.33 7.47461 30.0021 8.30081 30.0021H17.2912C18.1174 30.0021 18.7896 29.33 18.7896 28.5038C18.7896 28.3034 18.7505 28.1085 18.6732 27.9247C20.0341 27.2554 20.9534 25.9978 21.1908 24.5396C22.5057 24.2485 23.62 23.4943 24.458 22.3155C25.236 21.221 25.4945 20.1452 25.5215 20.026L25.5269 20.0004C25.8411 18.4473 25.6151 17.1887 24.8552 16.2597ZM23.2712 19.5246C23.2515 19.6015 23.0624 20.3 22.579 20.98C22.205 21.5062 21.7657 21.8801 21.2521 22.107V17.0882C21.831 17.1094 22.6707 17.2301 23.0707 17.7192C23.3695 18.0842 23.4368 18.6918 23.2712 19.5246Z" fill="#5A0808"/>
<path d="M9.39903 5.47686C10.6471 5.62179 11.9194 5.6413 12.9994 5.6413C13.3506 5.6413 13.7018 5.63915 14.0528 5.63692C14.5985 5.63354 15.1436 5.63016 15.6876 5.635L15.7693 5.63531C15.9079 5.63531 16.0698 5.63277 16.2385 5.63008C16.4137 5.62724 16.5964 5.62432 16.7679 5.62409C16.432 5.6901 16.0236 5.76302 15.659 5.82803C14.9247 5.95912 14.1655 6.09467 13.6194 6.22392L13.5168 6.24812C12.4564 6.49809 10.8541 6.87585 10.3369 8.02194C10.1333 8.4634 10.1482 8.96756 10.3775 9.40502C10.6195 9.86661 11.0667 10.1951 11.5737 10.2838C11.751 10.3148 11.9416 10.3443 12.1487 10.3443C12.486 10.3443 12.8243 10.3138 13.1474 10.2502C14.819 9.92171 14.8334 10.3554 14.8341 10.4007C14.8387 10.6848 14.2859 11.1765 14.0498 11.3865C13.9992 11.4316 13.9565 11.4695 13.9258 11.4987C13.8642 11.5571 13.7918 11.6218 13.7135 11.6916C13.2349 12.1185 12.5795 12.7031 12.659 13.3425C12.6686 13.4196 12.7342 13.4772 12.8114 13.4772C12.8129 13.4772 12.8143 13.4772 12.8157 13.4771C12.8948 13.475 12.9594 13.4131 12.9648 13.3342C12.9831 13.0711 13.2399 12.8407 13.4789 12.6455C13.7059 12.461 13.9521 12.2891 14.1903 12.1228C14.2896 12.0536 14.3889 11.9842 14.4874 11.9138L14.495 11.9084C14.931 11.5962 15.6607 11.0742 15.7596 10.4485C15.7994 10.1974 15.7353 9.95605 15.5693 9.73098C15.1076 9.10526 14.276 9.05293 13.5329 9.05293L13.4733 9.05301C13.3416 9.05332 13.2091 9.05654 13.0763 9.05969C12.9389 9.06307 12.8013 9.06645 12.6638 9.06645C12.4269 9.06645 12.2358 9.05623 12.0625 9.03349C11.7153 8.98792 11.5976 8.80304 11.6789 8.66473C11.9204 8.25354 13.1372 7.89008 15.3325 7.60531C15.4519 7.58978 15.5455 7.57764 15.6059 7.5685C15.7405 7.54783 15.8756 7.52785 16.0109 7.50772C16.7884 7.3923 17.5925 7.27281 18.3607 7.04513C19.7306 6.63902 19.9928 5.94921 19.9628 5.42584C19.9627 5.42238 19.9626 5.41885 19.9623 5.41523L19.9629 5.41516L19.9612 5.39887C19.9604 5.38942 19.9595 5.3795 19.9583 5.36898C19.9583 5.36813 19.9582 5.36736 19.958 5.36644C19.958 5.36629 19.958 5.36613 19.958 5.36598C19.958 5.36575 19.958 5.36552 19.958 5.36536C19.8957 4.81994 19.5171 4.37441 18.919 4.14312C18.0525 3.80786 17.036 3.80409 16.1391 3.80079L15.9047 3.79971C15.1375 3.79456 14.3567 3.81147 13.6024 3.8276C12.9422 3.84174 12.2595 3.85627 11.589 3.85627C10.9192 3.85627 10.3294 3.84159 9.78616 3.81124C9.3673 3.78788 8.8719 3.75168 8.3732 3.65994C7.99759 3.59078 7.53024 3.50464 7.23309 3.25329C6.96468 3.02622 7.24393 2.52529 7.42904 2.29223C7.98998 1.58605 8.97072 1.29343 9.85609 1.10033C10.6685 0.923134 11.558 0.828926 12.6557 0.803645C13.3609 0.787508 14.0484 0.804951 14.7016 0.855359C14.7056 0.855667 14.7096 0.85582 14.7136 0.85582C14.714 0.85582 14.7146 0.856051 14.715 0.85582C14.7999 0.85582 14.8687 0.78697 14.8687 0.702137C14.8687 0.627831 14.816 0.565896 14.7459 0.551526C13.4903 0.191906 12.1554 0.00195312 10.8848 0.00195312C10.4926 0.00195312 10.1015 0.0198573 9.72262 0.0552814C8.26316 0.191599 6.39175 0.713356 5.76457 2.42509C5.55202 3.00509 5.58237 3.52331 5.8547 3.96554C6.45783 4.94481 8.11501 5.32794 9.39903 5.47686Z" fill="#5A0808"/>
</g>
<defs>
<clipPath id="clip0_316_299">
<rect width="30" height="30" fill="white"/>
</clipPath>
</defs>
</svg>
