<svg width="32" height="32" viewBox="0 0 32 32" fill="none" xmlns="http://www.w3.org/2000/svg">
<path d="M24.3682 26.38C24.1115 26.7249 23.7783 27.0055 23.3949 27.1998C23.0114 27.3941 22.5881 27.4969 22.1582 27.5H9.8382C9.40831 27.4969 8.985 27.3941 8.60153 27.1998C8.21806 27.0055 7.88489 26.7249 7.6282 26.38C7.33968 26.0003 7.14266 25.5591 7.05247 25.0908C6.96228 24.6225 6.98135 24.1397 7.1082 23.68C7.5999 21.6752 8.73585 19.887 10.3418 18.59C11.9477 17.293 13.9348 16.5588 15.9982 16.5C18.0616 16.5588 20.0487 17.293 21.6546 18.59C23.2606 19.887 24.3965 21.6752 24.8882 23.68C25.015 24.1397 25.0341 24.6225 24.9439 25.0908C24.8537 25.5591 24.6567 26.0003 24.3682 26.38ZM5.1782 23.15C5.61621 21.5296 6.38577 20.0177 7.4382 18.71C6.13207 19.073 4.94699 19.7792 4.00616 20.7552C3.06532 21.7312 2.40306 22.9414 2.0882 24.26C1.98454 24.6563 1.97207 25.071 2.05175 25.4728C2.13142 25.8747 2.30116 26.2532 2.5482 26.58C2.76248 26.8632 3.0389 27.0934 3.35618 27.2529C3.67345 27.4124 4.0231 27.4969 4.3782 27.5H5.9982C5.54347 26.8831 5.23361 26.1717 5.09165 25.4186C4.94968 24.6655 4.97927 23.8901 5.1782 23.15ZM29.4482 26.58C29.2339 26.8632 28.9575 27.0934 28.6402 27.2529C28.323 27.4124 27.9733 27.4969 27.6182 27.5H25.9982C26.4495 26.8815 26.7558 26.1693 26.8943 25.4162C27.0328 24.6632 26.9999 23.8886 26.7982 23.15C26.3602 21.5296 25.5906 20.0177 24.5382 18.71C25.8443 19.073 27.0294 19.7792 27.9702 20.7552C28.9111 21.7312 29.5733 22.9414 29.8882 24.26C29.9947 24.6548 30.0104 25.0687 29.9342 25.4704C29.858 25.8722 29.6918 26.2516 29.4482 26.58ZM15.9982 4.5C15.0093 4.5 14.0426 4.79324 13.2204 5.34265C12.3981 5.89206 11.7572 6.67295 11.3788 7.58658C11.0004 8.50021 10.9013 9.50555 11.0943 10.4755C11.2872 11.4454 11.7634 12.3363 12.4627 13.0355C13.1619 13.7348 14.0528 14.211 15.0227 14.4039C15.9927 14.5969 16.998 14.4978 17.9116 14.1194C18.8253 13.741 19.6061 13.1001 20.1556 12.2779C20.705 11.4556 20.9982 10.4889 20.9982 9.5C20.9982 8.17392 20.4714 6.90215 19.5337 5.96447C18.5961 5.02678 17.3243 4.5 15.9982 4.5ZM23.9982 11.5C23.4049 11.5 22.8248 11.6759 22.3315 12.0056C21.8381 12.3352 21.4536 12.8038 21.2266 13.3519C20.9995 13.9001 20.9401 14.5033 21.0558 15.0853C21.1716 15.6672 21.4573 16.2018 21.8769 16.6213C22.2964 17.0409 22.831 17.3266 23.4129 17.4424C23.9949 17.5581 24.5981 17.4987 25.1463 17.2716C25.6944 17.0446 26.163 16.6601 26.4926 16.1667C26.8223 15.6734 26.9982 15.0933 26.9982 14.5C26.9982 13.7044 26.6821 12.9413 26.1195 12.3787C25.5569 11.8161 24.7938 11.5 23.9982 11.5ZM7.9982 11.5C7.40486 11.5 6.82484 11.6759 6.33149 12.0056C5.83814 12.3352 5.45363 12.8038 5.22656 13.3519C4.9995 13.9001 4.94009 14.5033 5.05585 15.0853C5.1716 15.6672 5.45732 16.2018 5.87688 16.6213C6.29644 17.0409 6.83099 17.3266 7.41293 17.4424C7.99487 17.5581 8.59807 17.4987 9.14625 17.2716C9.69443 17.0446 10.163 16.6601 10.4926 16.1667C10.8223 15.6734 10.9982 15.0933 10.9982 14.5C10.9982 13.7044 10.6821 12.9413 10.1195 12.3787C9.55691 11.8161 8.79385 11.5 7.9982 11.5Z" fill="#5A0808"/>
</svg>
