<svg width="24" height="24" viewBox="0 0 24 24" fill="none" xmlns="http://www.w3.org/2000/svg">
<g clip-path="url(#clip0_332_368)">
<path fill-rule="evenodd" clip-rule="evenodd" d="M2.94753 4.61067L9.43128 11.0972C10.8454 12.5086 13.157 12.5099 14.5723 11.0972L21.056 4.61067C21.1213 4.54537 21.1118 4.43784 21.0361 4.38502C20.3748 3.92381 19.5702 3.65039 18.7034 3.65039H5.30019C4.43342 3.65039 3.62881 3.92386 2.9675 4.38502C2.89175 4.43784 2.88223 4.54537 2.94753 4.61067ZM1.21484 7.73569C1.21484 7.05413 1.38383 6.41016 1.68148 5.84414C1.72803 5.75559 1.84602 5.73769 1.91675 5.80842L8.31842 12.2101C10.3456 14.2402 13.6568 14.2414 15.6852 12.2101L22.0869 5.80842C22.1576 5.73769 22.2756 5.75559 22.3221 5.84414C22.6198 6.41016 22.7888 7.05417 22.7888 7.73569V16.264C22.7888 18.5183 20.955 20.3493 18.7034 20.3493H5.30019C3.04869 20.3493 1.21484 18.5183 1.21484 16.264V7.73569Z" fill="#5A0808"/>
<path fill-rule="evenodd" clip-rule="evenodd" d="M2.94753 4.61067L9.43128 11.0972C10.8454 12.5086 13.157 12.5099 14.5723 11.0972L21.056 4.61067C21.1213 4.54537 21.1118 4.43784 21.0361 4.38502C20.3748 3.92381 19.5702 3.65039 18.7034 3.65039H5.30019C4.43342 3.65039 3.62881 3.92386 2.9675 4.38502C2.89175 4.43784 2.88223 4.54537 2.94753 4.61067ZM1.21484 7.73569C1.21484 7.05413 1.38383 6.41016 1.68148 5.84414C1.72803 5.75559 1.84602 5.73769 1.91675 5.80842L8.31842 12.2101C10.3456 14.2402 13.6568 14.2414 15.6852 12.2101L22.0869 5.80842C22.1576 5.73769 22.2756 5.75559 22.3221 5.84414C22.6198 6.41016 22.7888 7.05417 22.7888 7.73569V16.264C22.7888 18.5183 20.955 20.3493 18.7034 20.3493H5.30019C3.04869 20.3493 1.21484 18.5183 1.21484 16.264V7.73569Z" fill="#5A0808"/>
</g>
<defs>
<clipPath id="clip0_332_368">
<rect width="24" height="24" fill="white"/>
</clipPath>
</defs>
</svg>
