<svg width="24" height="24" viewBox="0 0 24 24" fill="none" xmlns="http://www.w3.org/2000/svg">
<g clip-path="url(#clip0_332_372)">
<path d="M23.3489 17.6126L19.9997 14.2633C18.8035 13.0672 16.77 13.5457 16.2915 15.1007C15.9327 16.1772 14.7365 16.7753 13.66 16.5361C11.2676 15.938 8.03797 12.8279 7.43989 10.316C7.08104 9.23938 7.79874 8.04321 8.87529 7.68441C10.4303 7.20594 10.9088 5.17245 9.71261 3.97628L6.36334 0.627012C5.4064 -0.210306 3.971 -0.210306 3.13368 0.627012L0.860962 2.89973C-1.41176 5.29207 1.1002 11.6318 6.72219 17.2538C12.3442 22.8757 18.6839 25.5074 21.0762 23.115L23.3489 20.8423C24.1863 19.8853 24.1863 18.4499 23.3489 17.6126Z" fill="#5A0808"/>
</g>
<defs>
<clipPath id="clip0_332_372">
<rect width="24" height="24" fill="white"/>
</clipPath>
</defs>
</svg>
