<svg width="30" height="30" viewBox="0 0 30 30" fill="none" xmlns="http://www.w3.org/2000/svg">
<path d="M5.24258 7.92475C6.02335 5.75422 8.10027 4.20215 10.5397 4.20215C11.9509 4.20215 13.2408 4.72155 14.2286 5.57962C13.0358 6.4084 12.0966 7.57622 11.55 8.94327C11.2521 8.89217 10.9462 8.8656 10.6346 8.8656C7.66078 8.8656 5.25 11.2764 5.25 14.2502C5.25 14.759 5.3238 15.2517 5.46058 15.7187C3.7544 15.2538 2.5 13.6933 2.5 11.8398C2.5 10.1246 3.57428 8.66027 5.0867 8.083C5.1591 8.05535 5.21635 7.99767 5.24258 7.92475Z" fill="#5A0808"/>
<path d="M18.4808 5.25C15.5474 5.25 13.0706 7.20465 12.2817 9.88253C12.2102 10.1254 11.9676 10.0673 11.7843 10.0177C10.7176 9.7286 9.5571 9.8566 8.5808 10.3752C7.15678 11.1315 6.25 12.6468 6.25 14.25C6.25 16.4263 8.01453 18.3585 10.1659 18.6075C10.3203 18.6254 10.4767 18.6346 10.6346 18.6346H23.0962C25.6453 18.6346 27.5 16.549 27.5 14C27.5 12.0242 26.47 10.3577 24.7246 9.69935C24.6521 9.672 24.5948 9.61423 24.5688 9.54123C23.6771 7.04018 21.288 5.25 18.4808 5.25Z" fill="#5A0808"/>
<path d="M12 22.25C12.6904 22.25 13.25 21.6904 13.25 21C13.25 20.3097 12.6904 19.75 12 19.75C11.3097 19.75 10.75 20.3097 10.75 21C10.75 21.6904 11.3097 22.25 12 22.25Z" fill="#5A0808"/>
<path d="M17.25 22.25C17.9404 22.25 18.5 21.6904 18.5 21C18.5 20.3097 17.9404 19.75 17.25 19.75C16.5597 19.75 16 20.3097 16 21C16 21.6904 16.5597 22.25 17.25 22.25Z" fill="#5A0808"/>
<path d="M16 24.75C16 25.4402 15.4404 26 14.75 26C14.0597 26 13.5 25.4402 13.5 24.75C13.5 24.0597 14.0597 23.5 14.75 23.5C15.4404 23.5 16 24.0597 16 24.75Z" fill="#5A0808"/>
<path d="M20 26C20.6904 26 21.25 25.4402 21.25 24.75C21.25 24.0597 20.6904 23.5 20 23.5C19.3097 23.5 18.75 24.0597 18.75 24.75C18.75 25.4402 19.3097 26 20 26Z" fill="#5A0808"/>
<path d="M23.75 21C23.75 21.6904 23.1904 22.25 22.5 22.25C21.8097 22.25 21.25 21.6904 21.25 21C21.25 20.3097 21.8097 19.75 22.5 19.75C23.1904 19.75 23.75 20.3097 23.75 21Z" fill="#5A0808"/>
</svg>
