<svg width="24" height="24" viewBox="0 0 24 24" fill="none" xmlns="http://www.w3.org/2000/svg">
<g clip-path="url(#clip0_342_728)">
<path d="M8.83984 0.873984C9.76192 1.97508 12.0198 4.84716 13.8257 8.56003C16.0834 7.92492 18.4542 6.79866 20.7814 4.93223L21.3434 4.48163C19.1419 1.75064 15.7709 0 11.9981 0C10.7946 0 9.63213 0.178875 8.53516 0.510141L8.83984 0.873984Z" fill="#5A0808"/>
<path d="M21.6648 6.02848C19.4231 7.82633 17.0027 9.10902 14.4297 9.86891C14.7882 10.6999 15.1006 11.525 15.3659 12.3413C17.7318 12.1401 20.404 12.4714 23.3163 13.3284L23.9078 13.5024C23.9696 13.0099 24.0018 12.5082 24.0018 11.9992C24.0018 9.65956 23.3281 7.47467 22.1655 5.62695L21.6648 6.02848Z" fill="#5A0808"/>
<path d="M1.45927 7.98752C2.65172 8.43977 5.29439 9.26753 8.62636 9.26762C9.82027 9.26767 11.1028 9.16117 12.4387 8.89328C10.7812 5.57191 8.77027 2.97784 7.76386 1.77597L7.13859 1.0293C4.22883 2.32394 1.92619 4.74311 0.785156 7.73186L1.45927 7.98752Z" fill="#5A0808"/>
<path d="M4.6185 20.8603C5.14711 19.2866 6.47147 16.3501 9.40214 14.3642C10.7374 13.4594 12.2674 12.8456 13.9606 12.5314C13.6937 11.7366 13.3898 10.9643 13.0621 10.221C11.8012 10.4977 10.5063 10.654 9.17991 10.6873C9.0023 10.6918 8.82586 10.6939 8.65158 10.6939C5.16478 10.694 2.3588 9.83386 0.960234 9.30342L0.360984 9.07617C0.125672 10.0125 0 10.9919 0 12.0002C0 15.7635 1.74183 19.1272 4.46109 21.329L4.6185 20.8603Z" fill="#5A0808"/>
<path d="M22.9193 14.6777C20.1139 13.8522 17.7554 13.5948 15.7734 13.7256C15.9518 14.4051 16.0963 15.0769 16.2061 15.7392C16.6293 18.292 16.5428 20.7326 15.9489 22.9933L15.8509 23.3663C19.6898 22.0628 22.6613 18.8652 23.6483 14.8922L22.9193 14.6777Z" fill="#5A0808"/>
<path d="M14.5857 22.6363C15.3655 19.6685 15.1238 16.67 14.3718 13.8906C8.84656 14.8467 6.70972 19.0461 5.95006 21.3077L5.65625 22.1823C7.49769 23.3334 9.67161 23.9998 11.9986 23.9998C12.7804 23.9998 13.5447 23.9238 14.2852 23.7804L14.5857 22.6363Z" fill="#5A0808"/>
</g>
<defs>
<clipPath id="clip0_342_728">
<rect width="24" height="24" fill="white"/>
</clipPath>
</defs>
</svg>
