<svg width="30" height="30" viewBox="0 0 30 30" fill="none" xmlns="http://www.w3.org/2000/svg">
<g clip-path="url(#clip0_316_311)">
<path d="M5.15723 15.5704C4.83889 15.5704 4.53174 15.3969 4.37559 15.0946C3.62389 13.6392 3.22656 11.9987 3.22656 10.3504C3.22662 4.6432 7.86977 0 13.577 0C16.2272 0 18.8625 1.09559 20.8073 3.0058C22.8194 4.98211 23.9275 7.59047 23.9275 10.3505C23.9275 11.7937 23.6342 13.1935 23.0559 14.5107C22.8606 14.9551 22.3422 15.1571 21.8978 14.9621C21.4533 14.7669 21.2512 14.2484 21.4463 13.804C21.9263 12.7109 22.1697 11.549 22.1697 10.3505C22.1697 8.06602 21.2484 5.90303 19.5756 4.25994C17.9567 2.66977 15.7703 1.75781 13.577 1.75781C8.83902 1.75781 4.98443 5.61246 4.98443 10.3505C4.98443 11.7193 5.31396 13.0808 5.93746 14.288C6.16023 14.7192 5.99119 15.2494 5.55988 15.4721C5.43092 15.5388 5.29305 15.5704 5.15723 15.5704Z" fill="#5A0808"/>
<path d="M8.2808 13.9571C7.96246 13.9571 7.65537 13.7837 7.49922 13.4814C7.00393 12.5225 6.74219 11.4398 6.74219 10.3505C6.74213 6.58172 9.80822 3.51562 13.577 3.51562C15.3134 3.51562 17.0508 4.244 18.3438 5.51391C19.6773 6.82377 20.4118 8.54145 20.4118 10.3504C20.4118 11.3041 20.2183 12.2282 19.8368 13.0971C19.6417 13.5415 19.123 13.7436 18.6787 13.5485C18.2343 13.3533 18.0322 12.8348 18.2273 12.3904C18.5104 11.7456 18.6539 11.0593 18.6539 10.3505C18.6539 9.01699 18.1063 7.74469 17.112 6.76799C16.145 5.81818 14.8565 5.27344 13.577 5.27344C10.7775 5.27344 8.49994 7.55098 8.49994 10.3505C8.49994 11.172 8.68867 11.9539 9.06098 12.6746C9.28375 13.1059 9.11471 13.6361 8.68346 13.8589C8.55449 13.9255 8.41656 13.9571 8.2808 13.9571Z" fill="#5A0808"/>
<path d="M23.1731 27.6568H15.2694C14.8702 27.6568 14.4781 27.6119 14.0977 27.5274V29.1216C14.0977 29.607 14.4912 30.0005 14.9766 30.0005H23.4659C23.9513 30.0005 24.3448 29.607 24.3448 29.1216V27.5273C23.9675 27.6118 23.5754 27.6568 23.1731 27.6568Z" fill="#5A0808"/>
<path d="M26.7737 18.0024C26.72 16.9051 25.8967 16.1151 24.8888 16.1151C23.8462 16.1151 23.001 16.9603 23.001 18.0029C23.001 17.9799 23.001 17.8997 23.001 17.8997C22.9474 16.9051 22.1241 16.1152 21.1162 16.1152C20.0736 16.1152 19.2284 16.9604 19.2284 18.003C19.2284 17.9799 19.2284 17.8998 19.2284 17.8998C19.1747 16.9052 18.3514 16.1152 17.3435 16.1152C16.3009 16.1152 15.4557 16.9604 15.4557 18.0031V8.89391C15.4021 7.89934 14.5788 7.10938 13.5708 7.10938C12.5282 7.10938 11.6831 7.95459 11.6831 8.99715L11.6719 22.2972C11.6702 24.286 13.282 25.8992 15.2709 25.8992H23.1746C25.1623 25.8992 26.7737 24.2878 26.7737 22.3V18.0024H26.7737Z" fill="#5A0808"/>
</g>
<defs>
<clipPath id="clip0_316_311">
<rect width="30" height="30" fill="white"/>
</clipPath>
</defs>
</svg>
