<svg width="50" height="50" viewBox="0 0 50 50" fill="none" xmlns="http://www.w3.org/2000/svg">
<path fill-rule="evenodd" clip-rule="evenodd" d="M25 50C38.8071 50 50 38.8071 50 25C50 11.3703 39.093 0.288149 25.5311 0.00552868L25.5342 0L25.5284 0.00547412C25.3527 0.00183069 25.1766 0 25 0C11.1929 0 0 11.1929 0 25C0 37.6194 9.35003 48.055 21.5003 49.757C21.4215 49.8222 21.3797 49.8542 21.3797 49.8542L21.5295 49.7943L21.5487 49.7857L21.5859 49.7688C22.7022 49.9213 23.8419 50 25 50ZM21.5859 49.7688L21.5003 49.757C21.5803 49.6908 21.6982 49.5905 21.8491 49.4547C22.1487 49.1851 22.5781 48.7856 23.0875 48.2463C23.5968 47.707 24.176 47.0279 24.7652 46.199C25.0549 45.7796 25.3545 45.3401 25.6341 44.8508C25.9137 44.3614 26.1834 43.8421 26.423 43.2929C26.9124 42.1843 27.2919 40.936 27.4617 39.5977C27.5416 38.9286 27.5915 38.2395 27.5615 37.5305C27.5316 36.8214 27.4717 36.1023 27.3318 35.3833C27.0722 33.9352 26.5828 32.4671 25.9337 31.029C25.8937 30.9392 25.8513 30.8493 25.8089 30.7594C25.7664 30.6695 25.724 30.5796 25.684 30.4897L25.4144 29.9505C25.3694 29.8606 25.322 29.7732 25.2746 29.6858C25.2271 29.5984 25.1797 29.511 25.1347 29.4212C25.0449 29.2414 24.945 29.0716 24.8451 28.9018C24.8103 28.8426 24.7766 28.7833 24.7425 28.7232L24.7425 28.7231L24.7424 28.7231C24.6788 28.611 24.6135 28.496 24.5355 28.3725L24.216 27.8432C24.1011 27.6485 23.9888 27.4563 23.8765 27.2641C23.7641 27.0719 23.6517 26.8796 23.5369 26.6848C22.668 25.1168 21.919 23.469 21.3697 21.7713C20.8105 20.0835 20.4409 18.3558 20.2712 16.668C20.1014 14.9802 20.1214 13.3324 20.3011 11.7944L20.3012 11.794C20.3511 11.4147 20.401 11.0353 20.4609 10.6659C20.4812 10.5588 20.5006 10.4525 20.5199 10.3468L20.52 10.3467C20.5673 10.0879 20.6139 9.83261 20.6706 9.57736C20.7131 9.41212 20.7512 9.24687 20.7889 9.08269L20.789 9.08261L20.789 9.08249L20.789 9.08232C20.8311 8.89932 20.873 8.71764 20.9203 8.53873C20.9575 8.41588 20.992 8.29165 21.0263 8.1681L21.0263 8.16807L21.0263 8.16801C21.0839 7.96014 21.141 7.75419 21.2099 7.56002C21.6194 6.29169 22.0988 5.16318 22.5881 4.21444C23.0775 3.2557 23.5668 2.46674 24.0062 1.83757C24.4457 1.2084 24.8252 0.749011 25.0948 0.43942C25.2246 0.289618 25.3345 0.169776 25.4044 0.0998682C25.4747 0.0529927 25.5145 0.0183406 25.5284 0.00547412L25.5311 0.00552868C25.512 0.0391195 25.4076 0.225243 25.2546 0.549275C25.0748 0.9088 24.8351 1.44809 24.5555 2.13718C24.2759 2.82627 23.9663 3.67515 23.6767 4.65386C23.3871 5.63256 23.1174 6.75109 22.9077 7.97947C22.708 9.20784 22.5781 10.5361 22.5581 11.9442C22.5482 13.3524 22.658 14.8204 22.9077 16.3185C23.1673 17.8165 23.5768 19.3345 24.1261 20.8325C24.6754 22.3305 25.3644 23.7986 26.1634 25.2267C26.2633 25.4015 26.3656 25.5787 26.468 25.756C26.5704 25.9333 26.6727 26.1105 26.7726 26.2853L27.1121 26.8545C27.1945 26.9894 27.2769 27.141 27.3593 27.2927L27.3598 27.2935C27.3871 27.3438 27.4144 27.3941 27.4417 27.4438L27.4419 27.4441C27.5517 27.6437 27.6615 27.8433 27.7613 28.043C27.7946 28.1096 27.829 28.1761 27.8634 28.2427C27.9322 28.3759 28.001 28.509 28.0609 28.6422C28.1108 28.742 28.1582 28.8443 28.2056 28.9466L28.2057 28.9467L28.2057 28.9468L28.2058 28.947C28.2532 29.0493 28.3006 29.1516 28.3505 29.2514C28.3954 29.3562 28.4404 29.4585 28.4853 29.5609L28.4854 29.5611C28.5303 29.6634 28.5752 29.7658 28.6201 29.8706C29.3092 31.5284 29.7886 33.2661 29.9684 35.0038C30.0583 35.8726 30.0982 36.7315 30.0383 37.5704C29.9883 38.4093 29.8685 39.2282 29.6787 40.0072C29.489 40.7862 29.2493 41.5252 28.9497 42.2043C28.6501 42.8834 28.3205 43.5225 27.961 44.1018C27.242 45.2603 26.423 46.199 25.6441 46.948C24.8651 47.697 24.1161 48.2663 23.4769 48.6957C22.8378 49.1251 22.3085 49.4148 21.949 49.5945C21.8028 49.6676 21.6764 49.7275 21.5859 49.7688ZM16.3563 7.92951C16.3563 7.92951 16.3064 8.07931 16.2165 8.35894L16.198 8.42357L16.198 8.42363C16.1188 8.70028 16.0078 9.08748 15.8969 9.57733C15.7771 10.1066 15.6473 10.7358 15.5474 11.4748C15.4475 12.2039 15.3676 13.0228 15.3477 13.9116C15.3277 14.8004 15.3676 15.7592 15.4875 16.7479C15.6173 17.7366 15.827 18.7652 16.1366 19.7938C16.4462 20.8225 16.8657 21.8511 17.375 22.8598C17.8843 23.8685 18.4935 24.8472 19.1626 25.7859L19.6819 26.485L19.9816 26.8945L20.2512 27.274L20.391 27.4637C20.42 27.4985 20.4456 27.5399 20.4717 27.5823L20.4717 27.5823C20.4907 27.613 20.5099 27.6441 20.5308 27.6734C20.6207 27.8232 20.7106 27.9631 20.8105 28.1129C20.8554 28.1878 20.9003 28.2602 20.9453 28.3326C20.9902 28.405 21.0352 28.4774 21.0801 28.5523C21.12 28.6271 21.1599 28.6995 21.1999 28.7719L21.1999 28.772C21.2399 28.8444 21.2798 28.9168 21.3198 28.9917C21.9589 30.1602 22.4483 31.4085 22.7079 32.6868C22.9776 33.9552 23.0175 35.2435 22.8478 36.4219C22.8428 36.4569 22.8378 36.4943 22.8328 36.5318C22.8278 36.5692 22.8228 36.6067 22.8178 36.6416C22.8128 36.6766 22.8053 36.714 22.7978 36.7515C22.7903 36.7889 22.7829 36.8264 22.7779 36.8613C22.7629 36.9312 22.7479 37.0037 22.7329 37.0761C22.7179 37.1485 22.703 37.2209 22.688 37.2907C22.658 37.4306 22.6181 37.5704 22.5781 37.7002C22.5675 37.7375 22.5575 37.7741 22.5477 37.8102L22.5477 37.8103C22.5207 37.9094 22.4949 38.0045 22.4583 38.0997C22.2785 38.619 22.0788 39.1183 21.8491 39.5677C21.3897 40.4666 20.8504 41.2056 20.3211 41.8048C19.7918 42.404 19.2725 42.8634 18.8331 43.2029C18.3936 43.5525 18.0141 43.7822 17.7645 43.932C17.6346 44.0119 17.5348 44.0618 17.4649 44.0918C17.395 44.1217 17.365 44.1417 17.365 44.1417C17.365 44.1417 17.4749 44.0219 17.6546 43.7922L17.6951 43.7405C17.8736 43.5127 18.1257 43.1911 18.4036 42.7835C18.7032 42.3441 19.0528 41.7948 19.3724 41.1457C19.7019 40.4965 20.0115 39.7475 20.2412 38.9186C20.4709 38.0897 20.6207 37.1909 20.6007 36.2421C20.5907 35.2934 20.4409 34.3147 20.1314 33.336C19.8218 32.3573 19.3624 31.3786 18.7831 30.4298L18.5734 30.0703C18.5138 29.9883 18.4598 29.9064 18.403 29.8202L18.4029 29.8201C18.3836 29.7908 18.364 29.7611 18.3437 29.7307L18.114 29.3912L18.0905 29.3556L18.0905 29.3555C18.061 29.3104 18.0339 29.2691 17.9942 29.2214L17.8544 29.0317C17.6435 28.7467 17.4293 28.4617 17.2138 28.1748L17.2135 28.1745L17.2131 28.1739C17.0512 27.9584 16.8885 27.742 16.7259 27.5236C15.9569 26.4451 15.2877 25.2966 14.7485 24.0982C14.2092 22.8997 13.8097 21.6614 13.56 20.433C13.3104 19.2046 13.2105 17.9962 13.2404 16.8577C13.2454 16.718 13.2529 16.5782 13.2604 16.4384L13.2604 16.4383C13.2679 16.2985 13.2754 16.1586 13.2804 16.0188C13.294 15.8919 13.3055 15.7671 13.3169 15.6443C13.3305 15.4965 13.3439 15.3517 13.3603 15.2099L13.4801 14.4309C13.4958 14.3526 13.5105 14.2743 13.5251 14.1962L13.5251 14.1962C13.5571 14.0255 13.5888 13.8564 13.6299 13.6919C13.8496 12.7332 14.1293 11.8843 14.4389 11.1652C14.7385 10.4362 15.058 9.83699 15.3477 9.35762C15.6373 8.87825 15.887 8.51873 16.0667 8.28903C16.1297 8.20499 16.1879 8.13569 16.2307 8.08456L16.2308 8.08449C16.249 8.06274 16.2645 8.04428 16.2764 8.02938C16.3264 7.95947 16.3563 7.92951 16.3563 7.92951ZM30.8273 7.38025C30.9072 7.10062 30.9671 6.95082 30.9671 6.95082C30.9671 6.95082 30.9371 6.98078 30.9072 7.03071C30.8913 7.04975 30.8724 7.07081 30.8511 7.09452C30.8054 7.14544 30.7488 7.20861 30.6874 7.29037C30.5077 7.52007 30.238 7.86961 29.9484 8.34897C29.6488 8.82834 29.3292 9.42755 29.0097 10.1466C28.6901 10.8657 28.3905 11.7145 28.1608 12.6633C28.1009 12.903 28.0509 13.1526 28.001 13.4023C27.9511 13.6519 27.9111 13.9115 27.8712 14.1712L27.8712 14.1713L27.7813 14.9802L27.7214 15.8191C27.6714 16.9576 27.7513 18.176 27.981 19.4044C28.2107 20.6328 28.5902 21.8811 29.1095 23.0895C29.6288 24.2879 30.288 25.4564 31.037 26.545C31.2706 26.8606 31.5002 27.1802 31.7308 27.5013C31.865 27.6882 31.9996 27.8756 32.1355 28.0629L32.2753 28.2527C32.2953 28.2827 32.3128 28.3101 32.3303 28.3376C32.3478 28.365 32.3652 28.3925 32.3852 28.4225L32.6049 28.762C32.6399 28.817 32.6773 28.8744 32.7148 28.9318C32.7522 28.9892 32.7897 29.0466 32.8246 29.1016L33.0343 29.4611C33.5936 30.4298 34.043 31.4085 34.3326 32.3972C34.6322 33.3859 34.7621 34.3646 34.7621 35.3134C34.7621 36.2621 34.6023 37.1709 34.3626 37.9898C34.1229 38.8088 33.8033 39.5578 33.4638 40.1969C33.1242 40.8461 32.7747 41.3854 32.4651 41.8248C32.1455 42.2642 31.8859 42.5938 31.6961 42.8235C31.5064 43.0432 31.3965 43.163 31.3965 43.163C31.3965 43.163 31.4365 43.143 31.5064 43.1131C31.5464 43.0902 31.5964 43.064 31.6562 43.0326C31.7006 43.0093 31.7506 42.9831 31.806 42.9533C32.0656 42.8135 32.4451 42.5838 32.8945 42.2442C33.3439 41.9047 33.8633 41.4553 34.4025 40.866C34.9418 40.2768 35.4911 39.5378 35.9705 38.649C36.2201 38.1996 36.4199 37.7102 36.6096 37.1909L36.6099 37.1899C36.6498 37.0604 36.6896 36.9309 36.7295 36.7914C36.7396 36.7585 36.7504 36.725 36.7613 36.691C36.7934 36.5907 36.8269 36.4863 36.8493 36.382C36.8643 36.3121 36.8793 36.2397 36.8942 36.1673C36.9092 36.0948 36.9242 36.0224 36.9392 35.9525C36.948 35.9172 36.9549 35.8838 36.9616 35.8515C36.97 35.8108 36.978 35.7718 36.9891 35.7328C36.9941 35.6979 36.9991 35.6604 37.0041 35.623C37.0091 35.5855 37.0141 35.5481 37.0191 35.5131C37.1988 34.3447 37.1789 33.0564 36.9292 31.778C36.6795 30.4997 36.2102 29.2414 35.591 28.0629C35.5429 27.9789 35.4985 27.8912 35.4534 27.8021C35.4234 27.743 35.3931 27.6833 35.3613 27.6235C35.3163 27.5486 35.2714 27.4762 35.2265 27.4038C35.1815 27.3314 35.1366 27.259 35.0916 27.1841C35.0467 27.1092 35.0017 27.0368 34.9568 26.9644C34.9119 26.892 34.8669 26.8196 34.822 26.7447C34.7879 26.6969 34.7538 26.6445 34.7228 26.597C34.7085 26.5749 34.6948 26.5539 34.6822 26.535L34.5523 26.3452L34.2827 25.9657L33.9931 25.5563L33.4937 24.8472C32.8446 23.8984 32.2454 22.9098 31.756 21.8911C31.2667 20.8724 30.8672 19.8338 30.5676 18.8052C30.278 17.7665 30.0782 16.7379 29.9684 15.7492C29.8585 14.7605 29.8286 13.8018 29.8685 12.9129C29.8985 12.0241 29.9984 11.2052 30.1082 10.4762C30.2181 9.74713 30.3579 9.10797 30.4877 8.58866C30.6175 8.06934 30.7374 7.65988 30.8273 7.38025Z" fill="#5A0808"/>
</svg>
