<svg width="250" height="287" viewBox="0 0 250 287" fill="none" xmlns="http://www.w3.org/2000/svg">
<g clip-path="url(#clip0_342_749)">
<path d="M19.9231 62.8383L0 30.1075C0 30.1075 0.692308 29.4922 2.80769 29.8575C4.92308 30.2229 5.40385 29.6075 8.76923 30.3575C12.1154 31.1075 13.4808 30.8575 17.4423 31.4729C21.4038 32.0883 25.8846 30.7229 27.1154 28.2422C28.3462 25.7614 29.9615 23.5306 32.0769 23.0306C34.1923 22.5306 35.9231 24.0306 37.4038 24.5114C38.8846 25.0114 39.7692 25.0114 39.6346 23.646C39.5192 22.2806 38.8846 20.6652 40.1346 20.0499C41.3654 19.4345 42.9808 17.2037 44.7308 16.5691C46.4615 15.9537 46.5962 14.7037 48.2115 15.3383C49.8269 15.9537 50.3269 15.0883 50.6923 14.3383C51.0577 13.5883 52.1731 12.3575 55.0385 11.1075C57.8846 9.87678 57.8846 8.37678 58.8846 7.39601C59.8846 6.39601 62.3654 5.28062 64.2115 5.16524C66.0769 5.04986 66.3269 5.28062 66.8077 4.66524C67.3077 4.04986 67.6731 3.43447 68.6731 3.54986C69.6731 3.66524 69.7885 2.54986 71.2692 2.54986C72.75 2.54986 73.1346 3.91524 74.25 3.16524C75.3654 2.41524 76.2308 2.29986 77.3462 2.54986C78.4615 2.79986 78.8269 1.31909 79.9423 2.04986C81.0577 2.79986 81.8077 4.78062 83.2885 4.03062C84.7692 3.28062 84.5192 2.16524 85.4038 1.04986C86.2692 -0.0655292 86.8846 0.299855 87.6346 1.04986C88.3846 1.79986 88.8654 3.28062 90 3.28062C91.1346 3.28062 90.5 4.03062 89.75 5.14601C89 6.26139 89.6346 8.49216 90.1154 9.99216C90.6154 11.4729 90.1154 12.9729 88.8846 14.2037C88.8846 14.2037 89.3846 14.9537 88.2692 16.0691C87.1538 17.1845 86.1538 17.5499 86.9038 18.5499C87.6538 19.5499 86.2885 20.0306 87.1538 20.7806C88.0192 21.5306 88.3846 21.646 88.5192 23.3768C88.6346 25.1075 91.25 25.7422 90 28.4537C88.7692 31.1845 86.1538 34.5306 87.5192 35.896C88.8846 37.2614 88.5192 38.0114 88.5192 39.4922C88.5192 40.9729 89.1346 41.4729 90.25 41.6075C91.3654 41.7229 90.3654 44.8383 91.25 44.7037C92.1154 44.5883 92.6154 43.9537 93.2308 44.4537C93.8461 44.9537 95.3461 44.2037 95.2115 46.1845C95.0961 48.1652 94.7115 49.7806 96.6923 49.4152C98.6731 49.0499 98.1731 50.646 98.8077 51.2806C99.4231 51.896 100.173 50.9152 100.788 51.646C101.404 52.396 101.288 54.9922 102.904 54.1268C104.519 53.2614 106.75 53.8768 106.135 55.3575C105.519 56.8383 105.635 57.7229 107.365 58.4537C109.096 59.2037 108.981 58.7037 110.712 59.0691C112.442 59.4345 112.692 58.2037 113.942 59.1845C115.173 60.1845 114.942 60.4152 116.673 60.9152C118.404 61.4152 119.519 62.0306 120.019 61.0306C120.519 60.0306 120.135 58.7999 122.135 59.0499C124.115 59.2999 124.5 57.6845 126.231 59.1652C127.962 60.646 130.192 60.1652 129.942 61.646C129.692 63.1268 129.577 64.0114 130.558 64.0114C131.558 64.0114 130.808 61.4152 132.538 62.0306C134.269 62.646 134.269 64.5114 134.519 65.8768C134.769 67.2422 136.5 65.9922 137.865 67.2422C139.231 68.4729 140.462 70.3383 141.462 70.2229C142.462 70.1076 143.192 68.8768 144.308 70.2229C145.423 71.5883 146.904 72.3191 148.904 71.4537C150.885 70.5883 150.769 72.5691 151.635 72.8191C152.5 73.0691 154.731 72.9345 154.865 74.5499C155 76.1652 156.231 77.7806 157.596 77.7806C158.962 77.7806 160.692 79.5114 160.577 80.7614C160.462 82.0114 161.692 81.3768 162.808 80.7614C163.923 80.146 165.288 81.2614 165.788 81.8768C166.288 82.4922 167.019 83.2422 169.135 81.8768C171.25 80.5114 172.231 81.0114 173.731 81.3768C175.212 81.7422 175.962 79.2614 177.942 81.2614C179.923 83.2422 181.173 81.5114 181.904 84.4922C181.904 84.4922 182.019 85.3576 184.269 85.6076C186.5 85.8576 187.865 86.4729 188.365 86.9729C188.865 87.4729 189.481 88.3383 189.481 88.3383L190.346 89.5691L191.346 90.0691L191.962 90.8191C191.962 90.8191 192.712 92.2999 191.712 93.4152C190.712 94.5306 189.731 95.0306 189.981 96.146C190.231 97.2614 190.481 98.0114 190.981 98.6268C191.481 99.2422 191.596 99.6268 191.981 100.242C192.346 100.858 192.481 100.992 192.596 101.608C192.712 102.223 192.481 102.473 192.596 102.973C192.712 103.473 192.596 103.723 192.481 104.204C192.365 104.704 192.231 104.704 191.981 105.069C191.731 105.434 191.365 106.069 191.365 106.069L190.865 106.569L190.25 107.184L190 108.05L190.25 108.915L190.865 110.146L190.981 111.261L191.231 112.011L191.481 113.127L191.981 114.127C191.981 114.127 192.096 114.242 191.981 114.742C191.865 115.242 191.865 115.358 191.481 115.858C191.115 116.358 191.115 116.358 191.115 116.358L190.173 116.973L189.731 117.588V118.204C189.731 118.204 189.942 118.454 190.423 118.819C190.923 119.184 191.269 119.434 191.269 119.434L191.885 120.05C191.885 120.05 191.75 119.934 192.865 121.165C193.981 122.396 194.346 122.781 194.346 122.781C194.346 122.781 194.596 123.531 194.712 124.011C194.827 124.511 194.712 125.242 194.712 125.242L195.077 126.108L195.442 127.723C195.442 127.723 195.942 131.569 195.442 134.55C194.942 137.531 196.558 139.011 196.558 140.127C196.558 141.242 196.673 141.992 197.558 142.108C198.423 142.223 233.904 142.473 233.904 142.473C233.904 142.473 235.769 139.242 236.635 141.108C237.5 142.973 237 144.454 236.269 145.204C235.519 145.954 236.269 146.069 235.154 147.569C234.038 149.05 232.558 149.434 232.673 151.165C232.788 152.896 234.038 156.127 233.788 158.242C233.538 160.358 233.288 162.838 233.538 163.954C233.788 165.069 234.654 165.569 235.654 165.934C236.654 166.3 237.769 165.819 239.135 166.684C240.5 167.55 241.5 167.184 242.615 167.434C243.731 167.684 245.962 168.05 246.096 169.165C246.212 170.281 245.346 170.531 245.096 171.396C244.846 172.261 244.596 172.761 245.596 173.511C246.596 174.261 247.212 175.992 247.577 177.608C247.942 179.223 249.808 179.723 250.058 181.569C250.308 183.434 248.942 183.55 249.058 185.665C249.173 187.781 248.558 189.011 247.827 190.742C247.077 192.473 246.462 196.819 246.462 196.819C246.462 196.819 248.327 197.184 247.692 198.8C247.077 200.415 247.327 201.531 245.827 202.511C244.346 203.511 243.231 204.877 243.231 204.877L238.635 216.531C238.635 216.531 242.846 219.761 243.096 220.742C243.346 221.742 243.212 222.608 241.865 222.858C240.5 223.108 239.75 223.358 238.769 223.973C237.769 224.588 237.038 224.223 237.154 222.973C237.269 221.742 237.404 219.992 237.404 219.992L217.942 207.954L198.846 207.454C198.846 207.454 190.288 210.3 187.308 211.165C184.327 212.031 180.615 213.281 177.885 213.646C175.154 214.011 165.846 215.761 163.5 214.877C163.5 214.877 161.135 220.838 160.404 222.684C159.654 224.55 158.923 225.415 157.923 226.896C156.923 228.377 154.212 232.358 154.212 232.358C154.212 232.358 154.327 242.531 153.846 244.761C153.365 246.992 151.731 254.069 150.615 256.8C149.5 259.531 148.019 264.358 147.385 265.973C146.769 267.588 146.019 270.934 145.269 271.184C144.519 271.434 144.038 270.069 143.904 269.569C143.788 269.069 140.192 269.684 142.423 264.973L123.327 265.088C123.327 265.088 123.442 268.569 121.462 268.569C121.462 268.569 121.346 270.684 120.231 271.55C119.115 272.415 118.865 272.55 118.75 273.415C118.635 274.281 117.75 274.415 117.385 275.896C117.019 277.377 116.635 278.992 116.635 280.492C116.635 281.992 116.885 285.338 115.404 285.338C113.923 285.338 114.538 283.108 114.654 282.492C114.769 281.877 114.654 281.377 113.904 280.511C113.154 279.646 113.538 279.396 113.788 278.396C114.038 277.396 113.904 276.531 112.423 275.915C110.942 275.3 109.692 274.434 110.692 273.434C111.692 272.434 111.692 271.069 110.808 270.454C109.942 269.838 109.577 271.069 107.577 270.088C105.596 269.088 104.981 267.492 102.115 267.723C99.2692 267.973 90.0769 268.338 87.5961 268.473C85.1154 268.588 84.6154 268.223 83.5 266.608C82.3846 264.992 81.2692 265.127 80.1538 264.742C79.0385 264.377 77.0577 262.877 75.9423 264.377C74.8269 265.858 75.6923 268.088 73.2115 269.338C70.7308 270.569 67.5 270.204 67.0192 272.069C66.5192 273.934 67.0192 275.05 65.4038 276.281C63.7885 277.511 61.5577 276.896 60.8077 279.992C60.0577 283.088 60.0577 283.704 57.5769 284.588C55.0962 285.454 53.2308 286.954 49.7692 287.069C46.2885 287.184 43.3269 286.954 43.6923 284.088C44.0577 281.242 43.8077 281.358 43.4423 279.242C43.0769 277.127 44.0577 275.031 43.0769 273.05C42.0769 271.069 42.4615 269.454 40.7115 268.204C38.9808 266.973 38.8462 265.108 39.5962 263.742C40.3462 262.377 37.8654 260.511 37.6154 258.281C37.3654 256.05 37.5 253.204 37.1154 252.569C36.75 251.954 36.1154 246.377 32.7692 245.261C29.4231 244.146 27.9231 242.781 28.9231 241.3C29.9231 239.819 30.7885 238.069 29.2885 237.588C27.8077 237.088 23.9615 235.473 25.5769 232.877C27.1923 230.281 26.4423 229.281 26.1923 228.415C25.9423 227.55 26.0769 226.8 27.3077 227.05C28.5385 227.3 29.5385 226.05 29.2885 224.569C29.0385 223.088 28.4231 222.088 26.4423 220.973C24.4615 219.858 26.5577 218.377 27.9231 216.761C29.2885 215.146 32.5192 212.8 28.7885 210.569C25.0769 208.338 19 205.492 19.2308 203.011C19.4808 200.531 19.8462 199.415 18 197.55C16.1346 195.684 15.6346 189.608 16.1346 187.761C16.6346 185.896 17.1346 182.915 15.8846 182.184C14.6538 181.434 11.5385 182.55 11.2885 179.588C11.0385 176.608 9.30769 177.608 9.42308 175.492C9.53846 173.377 9.30769 174.261 7.80769 172.511C6.32692 170.781 8.17308 170.146 6.57692 168.915C4.96154 167.684 4.34615 164.454 6.57692 163.088C8.80769 161.723 8.80769 161.723 9.55769 159.492C10.3077 157.261 10.5577 156.261 12.2885 155.531C14.0192 154.781 13.9038 150.934 15.3846 151.319C16.8654 151.684 19.0962 153.05 19.7308 151.434C20.3462 149.819 18 149.819 16.6346 149.319C15.2692 148.819 17.1346 148.204 18.6154 148.569C20.0962 148.934 22.7115 149.319 22.9615 148.204C23.2115 147.088 20.8462 145.108 22.2115 145.358C23.5769 145.608 24.0769 145.608 24.3269 144.492C24.5769 143.377 22.8462 141.011 22.4615 142.127C22.0962 143.242 21.5962 142.877 20.4808 142.742C19.3654 142.627 17.5 141.511 17.75 140.511C18 139.511 19.1154 139.031 19.8654 138.781C20.6154 138.531 21.8462 136.184 19 136.415C16.1538 136.665 15.0385 136.415 14.1538 134.684C13.2885 132.954 13.2885 133.454 11.9231 132.704C10.5577 131.954 9.32692 131.954 9.32692 130.473C9.32692 128.992 7.71154 127.492 9.07692 126.261C10.4423 125.031 12.4231 123.281 11.0577 121.55C9.69231 119.819 6.46154 118.704 6.84615 115.723C7.21154 112.742 8.21154 110.761 9.32692 110.511C10.4423 110.261 10.1923 107.665 11.5577 107.415C12.9231 107.165 12.0577 105.8 13.6731 104.934C15.2885 104.069 15.4038 103.204 15.7885 101.838C16.1538 100.473 17.4038 99.9729 17.4038 98.4922C17.4038 97.0114 16.5385 97.7422 15.2885 96.5114C14.0577 95.2806 13.1731 92.9152 14.1731 91.6652C15.1731 90.4345 15.0385 88.6845 14.1731 88.0691C13.3077 87.4537 13.4231 85.4729 14.2885 84.8383C15.1538 84.2229 15.6538 81.7422 15.2885 80.6268C14.9231 79.5114 15.4038 78.5114 15.5385 76.6652C15.6538 74.7999 13.9231 71.5883 15.1731 71.2037C16.4038 70.8383 16.9038 70.8383 16.9038 69.3383C16.8077 67.9345 16.1923 63.8383 19.9231 62.8383Z" stroke="#5A0808" stroke-opacity="0.4"/>
<path d="M19.6884 63.012C19.0922 63.012 18.4192 62.6466 17.9961 62.3389L18.3422 61.8774C18.6692 62.1274 19.6884 62.7235 20.0538 62.3005C20.1884 62.1274 20.3038 61.8774 20.3999 61.6274C20.7269 60.8389 21.1884 59.762 23.0346 59.9735C24.0922 60.0889 24.1884 59.6851 24.3615 58.9351C24.4961 58.3966 24.6499 57.7235 25.323 57.3005C25.8999 56.9351 26.3807 56.8389 26.7269 56.7812C27.2269 56.6851 27.4384 56.6466 27.6884 55.8389C27.8615 55.262 27.6307 54.7235 27.4192 54.2043C27.1115 53.4735 26.7076 52.5505 28.0346 51.8774C29.1499 51.3197 29.7653 51.7235 30.1884 51.9928C30.5346 52.2235 30.6115 52.2812 30.9384 51.9351C31.9769 50.8197 33.4192 49.7043 33.4961 49.6658L33.6307 49.5505L56.4961 60.762L57.2653 59.1466C56.8422 58.9351 56.1115 58.4928 55.8999 57.8582C55.7846 57.5505 55.823 57.2235 56.0153 56.9159C56.573 55.9735 57.1692 55.2428 57.3807 54.9928L57.5538 50.0505C57.0922 49.9735 56.2461 49.8005 55.9769 49.3582C55.8615 49.1851 55.8422 48.9735 55.9192 48.7812C55.9961 48.5697 56.0922 48.4159 56.1692 48.262C56.3807 47.8582 56.4192 47.7812 56.1115 47.512C55.7461 47.2043 55.6692 46.7428 55.9384 46.3774C56.2076 45.9928 56.8422 45.762 57.4769 46.1082C57.5922 46.1659 57.6307 46.1851 57.8615 45.8005C58.0922 45.4351 58.5346 44.7812 59.4192 45.262C60.1307 45.6466 60.8999 45.3389 61.0922 45.0312C61.1307 44.9543 61.1307 44.9543 61.073 44.9159C60.6115 44.5889 60.3422 44.0889 60.3615 43.6274C60.3807 43.2812 60.5538 42.8005 61.2653 42.3966C61.3999 42.3197 61.6115 42.1851 61.573 42.0312C61.5346 41.7428 60.9384 41.3774 60.3422 41.262C59.8038 41.1466 59.4384 40.8197 59.4192 40.3966C59.3807 39.8774 59.823 39.4159 60.5922 39.1274C61.4769 38.8005 62.1884 38.9351 62.7653 39.0312C63.0922 39.0889 63.3615 39.1466 63.6307 39.1082C63.8807 39.0889 64.0922 38.8582 64.3422 38.6082C64.7076 38.2235 65.1884 37.7428 65.9961 37.8005C66.1307 37.8197 66.2461 37.8197 66.3615 37.8389C67.4961 37.9351 67.9961 37.9351 68.1115 37.4735C68.2269 36.9351 68.8422 36.6659 69.323 36.4543C69.4769 36.3774 69.7269 36.2812 69.823 36.2043C69.823 36.2043 69.8038 36.1851 69.7846 36.1659C69.6692 36.0697 69.5538 35.9735 69.4384 35.8774C69.0153 35.5312 68.6499 35.2428 68.6884 34.8389C68.7076 34.4543 69.0922 34.1851 69.3807 34.0312C69.6884 33.8582 69.9576 33.7235 70.2076 33.6082C70.4384 33.4928 70.7269 33.3582 70.8038 33.2812C70.7846 33.262 70.7461 33.2043 70.6499 33.1082C70.1307 32.6466 69.9192 31.9735 70.1499 31.4928C70.3422 31.1082 70.7461 30.9351 71.2461 31.0312C71.2653 31.0312 71.2653 31.0312 71.2846 31.0312C71.2846 31.012 71.2653 30.9735 71.2653 30.9543C71.2076 30.7235 71.1115 30.3966 71.2846 30.1082C71.3999 29.9159 71.5922 29.8005 71.8615 29.7235C72.8038 29.4928 73.0153 28.0312 72.8615 27.0697C72.7269 26.2235 72.6692 25.3774 73.1692 24.8582C73.5153 24.512 74.0538 24.3966 74.7653 24.4928C75.5153 24.6082 75.5922 24.3966 75.7653 23.8389C75.9384 23.3389 76.1692 22.6274 77.0922 22.1851C78.7076 21.4159 78.8422 21.262 80.1115 19.762L80.3422 19.4735C81.1499 18.5312 81.6115 18.512 82.0922 18.6082C82.3615 18.6466 82.5538 18.6851 83.0346 18.012C83.1115 17.9159 83.1692 17.8197 83.2461 17.7235C84.4576 16.012 86.3038 13.4351 89.073 14.8582L88.8038 15.3774C86.4769 14.1851 84.8807 16.4159 83.7076 18.0505C83.6307 18.1466 83.5538 18.262 83.4961 18.3582C82.8422 19.262 82.4384 19.262 81.9961 19.1851C81.7076 19.1274 81.4384 19.0889 80.8038 19.8582L80.573 20.1466C79.2846 21.6851 79.0922 21.9159 77.3615 22.7235C76.6499 23.0697 76.4769 23.5505 76.323 24.0312C76.1307 24.6082 75.9192 25.262 74.6884 25.0697C74.1499 24.9928 73.7846 25.0505 73.5922 25.262C73.2653 25.5889 73.323 26.3197 73.4384 26.9735C73.6692 28.3389 73.2461 29.9735 72.0153 30.2812C71.8999 30.3197 71.823 30.3582 71.7846 30.3966C71.7461 30.4735 71.7846 30.6466 71.823 30.8005C71.8807 31.012 71.9384 31.262 71.7653 31.4543C71.5922 31.6274 71.323 31.6082 71.1307 31.5697C70.9576 31.5312 70.7269 31.5312 70.6499 31.7043C70.5538 31.9159 70.6499 32.3389 70.9961 32.6466C71.1692 32.8005 71.3999 33.0312 71.3615 33.3389C71.3038 33.6851 70.9384 33.8774 70.4384 34.1082C70.2076 34.2235 69.9384 34.3389 69.6692 34.512C69.2846 34.7235 69.2653 34.8582 69.2653 34.8582C69.2653 34.9735 69.573 35.2235 69.8038 35.4159C69.9192 35.512 70.0538 35.6082 70.1692 35.7235C70.3615 35.8966 70.4384 36.0697 70.4192 36.262C70.3615 36.6082 69.9961 36.762 69.5538 36.9543C69.1884 37.1274 68.7269 37.3197 68.6692 37.5697C68.4384 38.5697 67.3999 38.4735 66.3038 38.3774C66.1884 38.3582 66.073 38.3582 65.9384 38.3389C65.3807 38.3005 65.0922 38.6082 64.7269 38.9735C64.4384 39.2812 64.1307 39.5889 63.6692 39.6466C63.323 39.6851 62.9769 39.6274 62.6307 39.5697C62.073 39.4735 61.4961 39.3774 60.7653 39.6466C60.2076 39.8389 59.9576 40.1274 59.9769 40.3197C59.9961 40.4735 60.1692 40.6082 60.4384 40.6659C61.0346 40.7812 62.0153 41.2235 62.1307 41.9159C62.1692 42.1659 62.1115 42.5505 61.5346 42.8774C61.2653 43.0312 60.9384 43.2812 60.9192 43.6466C60.8999 43.9159 61.0922 44.2235 61.3807 44.4351C61.6884 44.6466 61.7461 45.012 61.5538 45.3389C61.2269 45.8774 60.1115 46.3005 59.1307 45.762C58.7269 45.5505 58.5922 45.7043 58.323 46.1082C58.1115 46.4159 57.7846 46.9351 57.1692 46.5889C56.823 46.3966 56.4961 46.5312 56.3807 46.6851C56.3038 46.8005 56.323 46.9351 56.4576 47.0505C57.1115 47.6082 56.8807 48.0889 56.6692 48.4928C56.5922 48.6274 56.5153 48.7812 56.4576 48.9543C56.4384 48.9928 56.4576 49.012 56.4576 49.0312C56.5922 49.2428 57.3038 49.4351 57.8807 49.4928L58.1499 49.512L57.9576 55.1851L57.8807 55.262C57.8807 55.262 57.1499 56.0889 56.5153 57.1658C56.4192 57.3197 56.3999 57.4735 56.4576 57.6274C56.6307 58.1274 57.4576 58.5697 57.7653 58.7043L58.0538 58.8197L56.7653 61.4928L33.6884 50.1851C33.3038 50.4928 32.1692 51.3966 31.3615 52.2812C30.7076 52.9928 30.2269 52.6659 29.8615 52.4351C29.4769 52.1851 29.1115 51.9351 28.3038 52.3389C27.4961 52.7428 27.6115 53.0889 27.9576 53.9159C28.1884 54.4735 28.4961 55.1851 28.2461 55.9543C27.9192 57.0312 27.4961 57.1851 26.8422 57.3005C26.5153 57.3582 26.1307 57.4158 25.6499 57.7428C25.1884 58.0312 25.073 58.5312 24.9384 59.0312C24.7653 59.762 24.5346 60.6851 22.9769 60.512C21.5538 60.3582 21.2653 61.0697 20.9384 61.8197C20.8038 62.1274 20.6884 62.4158 20.4961 62.6466C20.2846 62.9158 19.9961 63.012 19.6884 63.012Z" stroke="#5A0808" stroke-opacity="0.4"/>
<path d="M14.8248 183.799L14.3633 183.453C16.0748 181.145 18.0748 180.78 20.0171 180.415C20.921 180.242 21.7671 180.088 22.5748 179.742C22.8633 179.607 23.1325 179.511 23.3633 179.415C25.1517 178.665 25.3056 178.607 28.671 176.069C31.4787 173.953 33.0171 174.972 34.8056 176.165C35.5941 176.684 36.4787 177.28 37.5941 177.703C40.5556 178.819 41.2864 177.78 42.5171 176.049C42.7287 175.742 42.9594 175.415 43.2287 175.088C44.9979 172.819 47.671 171.145 51.3633 169.972C54.9017 168.857 58.8056 171.145 59.6325 171.665C60.5364 171.107 61.0171 170.492 61.0556 169.838C61.1133 168.934 60.2671 168.242 60.0171 168.049C58.921 167.222 56.4979 164.376 55.8248 161.472C55.6133 160.549 55.7094 159.799 56.1133 159.222C56.8825 158.107 58.5941 157.876 59.9787 157.684C60.3441 157.626 60.5748 157.549 60.671 157.415C60.7864 157.261 60.7287 156.953 60.671 156.549C60.5748 155.915 60.421 155.049 60.8633 154.03C61.421 152.761 61.1325 152.319 60.7094 151.607C60.4594 151.222 60.1902 150.761 60.0171 150.126C59.7479 149.126 59.5364 148.953 59.2864 148.722C59.094 148.549 58.8441 148.338 58.5748 147.876C58.3248 147.453 58.2479 147.069 58.171 146.742C58.0364 146.145 57.9594 145.838 57.1133 145.684C56.8441 145.645 56.4787 145.549 56.3248 145.242C56.171 144.934 56.344 144.607 56.4979 144.28C56.7479 143.819 56.8248 143.588 56.5748 143.376C55.5556 142.472 55.6133 142.145 56.0171 141.069L56.0364 141.011C56.171 140.626 56.0364 140.395 55.7864 140.03C55.5748 139.703 55.3056 139.319 55.4787 138.78C55.8441 137.703 56.0364 136.492 54.8441 135.665C54.3825 135.357 54.1517 135.011 54.1133 134.645C54.0364 134.011 54.5556 133.472 55.0556 132.934C55.2479 132.722 55.4594 132.492 55.6133 132.28C55.9979 131.761 55.9979 131.761 54.9594 130.703C54.5171 130.242 53.9017 129.626 53.1325 128.742C51.0171 126.319 50.0941 123.703 49.5556 122.126C49.421 121.722 49.2864 121.376 49.1902 121.126C48.9402 120.549 48.8633 120.03 48.8056 119.53C48.7094 118.838 48.6133 118.261 48.1325 117.665C47.4402 116.838 47.5748 116.107 47.7094 115.261C47.7864 114.838 47.8633 114.357 47.8633 113.761C47.8633 112.742 47.6325 112.645 46.9787 112.376C46.671 112.242 46.2671 112.088 45.8441 111.761C45.2671 111.357 44.8825 110.876 44.5364 110.453C44.0748 109.876 43.671 109.395 42.9594 109.203C42.6325 109.107 42.1902 108.953 42.0941 108.549C41.9787 108.03 42.5171 107.53 43.2671 106.857C43.3633 106.761 43.4787 106.665 43.5941 106.569C43.8248 106.357 44.0941 106.03 44.0171 105.703C43.9402 105.376 43.5556 105.088 43.0556 104.934C42.7094 104.838 42.4787 104.53 42.4017 104.107C42.2094 103.184 42.6902 101.588 43.6133 100.819C43.7479 100.703 43.8825 100.588 43.9979 100.492C44.3056 100.242 44.5364 100.049 44.5748 99.9531C44.5941 99.9147 44.5364 99.7993 44.4017 99.6262C43.9787 99.03 44.1133 98.7224 44.3825 98.28C44.4594 98.1454 44.5556 97.9724 44.6517 97.7608C44.7671 97.5108 44.6517 97.3762 44.3633 97.0685C44.0941 96.78 43.7671 96.4147 43.8825 95.8762C43.9979 95.3377 44.3441 95.1454 44.5748 95.0108C44.7864 94.8762 44.8248 94.857 44.8056 94.6647C44.6902 93.7608 45.0941 92.8377 46.0748 91.6454C46.5364 91.0877 46.5941 90.8185 46.5556 90.7031C46.4787 90.4724 45.9787 90.2993 45.5556 90.1647C45.421 90.1262 45.0748 90.0108 45.0364 89.7031C45.0171 89.3762 45.3633 89.2031 45.7671 88.9916C45.921 88.9147 46.1517 88.7993 46.2671 88.7031C46.0171 88.5108 45.7671 88.2608 45.8056 87.9339C45.8441 87.4916 46.3825 87.2224 47.1902 86.8377C47.4979 86.7031 47.671 86.5108 47.7094 86.2801C47.8056 85.8185 47.4594 85.2031 47.0941 84.78C46.4594 84.0493 47.0556 83.107 47.5748 82.28C47.7287 82.03 47.8825 81.7993 47.9787 81.5877C48.3248 80.8954 48.7287 80.53 49.2479 80.0685C49.4594 79.8762 49.7094 79.6454 49.9787 79.3762C50.3633 78.9916 50.844 78.7608 51.2094 78.5877C51.4017 78.4916 51.671 78.3762 51.7287 78.28C51.7094 78.2416 51.6517 78.1647 51.4787 78.0493C51.3056 77.9147 50.7864 77.53 50.8825 77.03C50.9594 76.6454 51.3825 76.4724 51.5364 76.4339C52.2287 75.9339 52.4402 74.8954 52.1517 74.3185C51.7671 73.5685 51.5748 72.6839 52.921 71.8954C53.5364 71.53 54.0556 71.5877 54.3633 71.6262C54.421 71.6262 54.4979 71.6454 54.5364 71.6454C54.5364 71.607 54.5556 71.5685 54.5556 71.4916C54.5556 71.2031 54.4594 70.9916 54.3633 70.8185C54.2671 70.6262 54.1517 70.4147 54.2479 70.1839C54.3056 69.9916 54.4787 69.8185 54.8248 69.6647C55.0748 69.5493 55.0748 69.4531 54.9787 69.03C54.8825 68.6454 54.7479 68.107 55.2094 67.5877C55.5556 67.2031 55.6325 66.9724 55.7094 66.7416C55.7864 66.4916 55.8825 66.2224 56.2287 65.8185C56.671 65.3185 56.4017 64.8377 55.9787 64.2031L55.921 64.1262C55.5171 63.53 55.9594 63.1454 56.3056 62.8377C56.4594 62.7031 56.6133 62.5685 56.7671 62.3762C57.1325 61.9531 56.5364 61.4147 56.5171 61.3762L56.9017 60.9531C57.2671 61.28 57.7864 62.0685 57.2094 62.7608C57.0364 62.9724 56.8441 63.1262 56.671 63.28C56.2671 63.6262 56.2864 63.6647 56.3825 63.8185L56.4402 63.8954C56.8056 64.4339 57.4017 65.3377 56.6325 66.2031C56.3633 66.5108 56.2864 66.7031 56.2287 66.9339C56.1325 67.2031 56.0364 67.5108 55.6133 67.9724C55.3633 68.2608 55.4017 68.5108 55.5171 68.8954C55.6133 69.28 55.7479 69.8377 55.0748 70.1839C54.8248 70.2993 54.7864 70.3762 54.7864 70.3762C54.7864 70.3954 54.8441 70.4916 54.8825 70.5685C54.9979 70.78 55.1325 71.0685 55.1325 71.5108C55.1325 71.7031 55.1133 71.9531 54.9402 72.107C54.7671 72.2608 54.5364 72.2416 54.3056 72.2224C54.0171 72.1839 53.671 72.1454 53.2287 72.4147C52.3248 72.9339 52.3441 73.3762 52.6902 74.0877C53.1517 75.0108 52.7671 76.357 51.8441 76.9724L51.8056 76.9916L51.7479 77.0108C51.6325 77.0493 51.4787 77.1262 51.4787 77.1839C51.4787 77.1839 51.4594 77.3185 51.8633 77.6262C52.1133 77.7993 52.3825 78.0493 52.3441 78.3762C52.3056 78.7416 51.9402 78.9147 51.4787 79.1454C51.1133 79.3185 50.7094 79.5301 50.4017 79.8377C50.1133 80.1262 49.8633 80.357 49.6517 80.5493C49.1517 81.0108 48.8056 81.2993 48.5171 81.8954C48.4017 82.1262 48.2479 82.3762 48.0748 82.6454C47.5556 83.4724 47.2094 84.0877 47.5364 84.4724C47.8248 84.7993 48.4594 85.6454 48.2864 86.4724C48.2287 86.7608 48.0171 87.1647 47.4402 87.4339C47.1902 87.5493 46.421 87.8954 46.3825 88.0685C46.3825 88.0685 46.4017 88.1454 46.6517 88.3377C46.8633 88.5108 46.9017 88.6839 46.9017 88.7993C46.8633 89.1454 46.4787 89.357 46.0364 89.5685C45.9594 89.607 45.8825 89.6454 45.8056 89.7031C46.3825 89.8762 46.9787 90.1262 47.1133 90.607C47.2287 91.0108 47.0364 91.4531 46.5171 92.0877C45.6325 93.1262 45.2864 93.9147 45.3825 94.6647C45.4594 95.2416 45.0941 95.4339 44.8633 95.5685C44.671 95.6839 44.5171 95.78 44.4402 96.0493C44.3825 96.2993 44.5364 96.4724 44.7864 96.7224C45.0556 97.03 45.4402 97.4339 45.171 98.0493C45.0556 98.2993 44.9594 98.4724 44.8633 98.6262C44.6517 98.9916 44.6325 99.0301 44.8633 99.357C45.421 100.145 45.1133 100.395 44.3633 101.011C44.2479 101.107 44.1325 101.203 43.9787 101.319C43.2287 101.934 42.8056 103.319 42.9594 104.049C42.9979 104.28 43.0941 104.415 43.2287 104.434C43.7864 104.607 44.4402 105.011 44.5941 105.626C44.671 105.953 44.6325 106.472 43.9979 107.049C43.8825 107.145 43.7864 107.242 43.671 107.338C43.2479 107.703 42.6325 108.28 42.671 108.472C42.671 108.511 42.7671 108.607 43.1325 108.703C44.0364 108.953 44.5171 109.53 45.0171 110.145C45.3441 110.549 45.6902 110.992 46.2094 111.357C46.5941 111.626 46.9402 111.78 47.2479 111.915C48.0171 112.242 48.4787 112.511 48.4787 113.838C48.4787 114.472 48.3825 114.992 48.3056 115.434C48.1517 116.242 48.0748 116.742 48.5941 117.376C49.1902 118.107 49.3056 118.838 49.4017 119.53C49.4787 119.992 49.5364 120.472 49.7479 120.972C49.8633 121.242 49.9979 121.607 50.1325 122.011C50.7094 123.645 51.5748 126.107 53.6133 128.434C54.3825 129.319 54.9787 129.934 55.421 130.376C56.4594 131.434 56.8056 131.78 56.1325 132.703C55.9594 132.953 55.7287 133.184 55.5171 133.415C55.1133 133.857 54.6902 134.299 54.7287 134.665C54.7479 134.857 54.921 135.069 55.2094 135.28C56.921 136.453 56.3056 138.338 56.0556 139.049C55.9787 139.299 56.094 139.472 56.3056 139.78C56.5556 140.145 56.8633 140.607 56.6133 141.28L56.594 141.338C56.2479 142.28 56.2287 142.319 56.9979 143.011C57.5941 143.549 57.2479 144.222 57.0364 144.607C56.9594 144.742 56.8441 144.972 56.8633 145.03C56.8633 145.03 56.921 145.107 57.2287 145.165C58.4594 145.376 58.6133 146.03 58.7479 146.665C58.8248 146.972 58.9017 147.299 59.094 147.626C59.3248 148.011 59.5171 148.184 59.6902 148.338C59.9979 148.607 60.3056 148.857 60.6133 150.03C60.7671 150.607 60.9979 150.992 61.2287 151.357C61.671 152.088 62.0941 152.761 61.421 154.299C61.0556 155.165 61.171 155.895 61.2671 156.492C61.3441 156.992 61.421 157.434 61.1517 157.799C60.9594 158.069 60.6133 158.222 60.0748 158.299C58.8056 158.472 57.2287 158.684 56.594 159.588C56.2864 160.03 56.2287 160.626 56.4017 161.376C57.0556 164.145 59.3441 166.857 60.3825 167.626C61.2287 168.261 61.6902 169.107 61.6517 169.915C61.5941 170.799 60.9787 171.607 59.8056 172.299L59.6517 172.395L59.4979 172.299C59.4594 172.261 55.1902 169.415 51.5556 170.569C47.9787 171.703 45.4017 173.319 43.6902 175.492C43.4402 175.799 43.2287 176.126 42.9979 176.415C41.7479 178.165 40.7671 179.53 37.4017 178.28C36.2287 177.838 35.3056 177.222 34.4787 176.684C32.671 175.492 31.4979 174.703 29.0171 176.569C25.5941 179.145 25.421 179.222 23.5941 179.992C23.3633 180.088 23.1133 180.203 22.8248 180.319C21.9594 180.684 21.0364 180.857 20.1517 181.03C18.2094 181.338 16.4017 181.684 14.8248 183.799Z" stroke="#5A0808" stroke-opacity="0.4"/>
<path d="M79.6722 145.089C79.2491 145.089 78.8645 144.877 78.2299 144.512C77.8068 144.262 77.0953 144.223 76.4222 144.185C75.7299 144.146 74.9991 144.108 74.4606 143.839C74.0953 143.666 73.4991 143.57 72.8645 143.473C71.8453 143.32 70.6914 143.166 69.9991 142.55C69.6914 142.281 69.3453 142.05 68.9991 141.8C68.1722 141.243 67.3453 140.646 66.826 139.55C66.1722 138.146 64.9222 137.05 64.9222 137.05C63.9606 136.204 61.5953 135.954 60.0376 135.781L59.8837 135.762C58.4029 135.589 58.1145 135.07 57.6722 134.281C57.576 134.089 57.4606 133.877 57.3068 133.646C56.6145 132.57 55.9414 132.204 55.9414 132.204L56.2106 131.685C56.2491 131.704 57.0376 132.108 57.8068 133.339C57.9606 133.589 58.076 133.8 58.1914 134.012C58.5953 134.762 58.7683 135.07 59.9606 135.204L60.1145 135.223C61.8453 135.416 64.2299 135.685 65.326 136.646C65.3837 136.685 66.6722 137.82 67.3837 139.339C67.826 140.3 68.576 140.82 69.3645 141.358C69.7106 141.608 70.076 141.858 70.4222 142.146C70.9799 142.646 72.0568 142.8 72.9799 142.935C73.6722 143.031 74.3068 143.127 74.7491 143.339C75.1722 143.55 75.8453 143.589 76.4799 143.627C77.2299 143.666 78.0183 143.704 78.5568 144.031C79.4991 144.589 79.6722 144.627 80.2106 144.396C80.9029 144.089 81.5953 143.762 83.1722 143.377C84.8068 142.993 85.8645 142.57 85.8645 140.435C85.8645 138.781 86.6914 137.627 87.4029 136.608C87.7876 136.07 88.1529 135.55 88.3645 135.012C88.9606 133.473 90.6529 130.781 92.076 131.243C92.3453 131.339 92.6722 131.454 93.0568 131.608C94.2876 132.07 95.9606 132.723 97.1337 132.723C97.5183 132.723 97.9414 132.723 98.3837 132.723C99.8453 132.704 101.518 132.704 102.672 132.8C104.114 132.916 106.826 132.993 108.057 132.743C109.364 132.473 117.114 131.243 119.73 130.877C121.326 130.646 122.691 130.223 123.903 129.858C124.672 129.627 125.403 129.396 126.038 129.262C126.653 129.146 127.461 129.146 128.249 129.146C129.191 129.146 130.614 129.166 130.711 128.781C130.807 128.396 130.691 127.704 130.576 126.973C130.422 126.031 130.268 125.07 130.461 124.32C130.73 123.204 131.134 121.512 130.461 120.723C129.653 119.781 129.653 119.146 129.653 117.993C129.653 117.877 129.653 117.762 129.653 117.646C129.672 116.781 129.672 116.762 129.057 116.723C128.845 116.704 126.98 116.57 126.364 115.781C126.191 115.55 126.134 115.3 126.191 115.031C126.268 114.646 126.076 114.3 125.634 113.589C125.288 113.05 124.826 112.3 124.364 111.223C123.384 108.973 123.691 108.185 124.307 106.589C124.384 106.377 124.461 106.166 124.557 105.935C124.672 105.627 124.807 105.223 124.961 104.781C126.518 100.358 127.499 97.8773 128.153 97.5311C128.961 97.0888 150.403 88.5696 151.307 88.2234H151.326C151.499 88.1657 169.249 82.4349 172.691 79.8965L173.038 80.358C169.518 82.9542 152.364 88.4926 151.518 88.7619C143.807 91.8196 129.057 97.7042 128.422 98.0503C127.845 98.358 126.191 103.012 125.499 104.993C125.345 105.435 125.191 105.839 125.095 106.146C124.999 106.377 124.922 106.608 124.845 106.82C124.268 108.358 124.018 108.993 124.903 111.031C125.364 112.07 125.788 112.762 126.134 113.32C126.595 114.05 126.903 114.55 126.768 115.185C126.749 115.3 126.768 115.377 126.845 115.473C127.153 115.877 128.211 116.146 129.114 116.204C130.268 116.281 130.268 116.839 130.249 117.704C130.249 117.8 130.249 117.916 130.249 118.031C130.249 119.146 130.249 119.608 130.922 120.377C131.788 121.377 131.345 123.243 131.038 124.473C130.884 125.108 131.038 126.07 131.172 126.896C131.307 127.723 131.422 128.454 131.288 128.935C131.076 129.743 129.768 129.723 128.268 129.723C127.518 129.723 126.73 129.723 126.172 129.82C125.557 129.935 124.884 130.146 124.095 130.396C122.864 130.781 121.48 131.204 119.845 131.435C117.307 131.781 109.461 133.031 108.211 133.3C106.941 133.55 104.153 133.493 102.672 133.358C101.557 133.262 99.9029 133.281 98.4414 133.281C97.9991 133.281 97.5568 133.281 97.1722 133.281C95.8837 133.281 94.1529 132.608 92.8837 132.127C92.5183 131.993 92.1914 131.858 91.9414 131.781C91.1337 131.512 89.6337 133.435 88.9606 135.204C88.7299 135.82 88.3453 136.358 87.9414 136.935C87.2299 137.935 86.4991 138.973 86.4991 140.435C86.4991 143.185 84.7683 143.608 83.3645 143.935C81.8453 144.3 81.1914 144.589 80.4991 144.916C80.1529 145.031 79.9029 145.089 79.6722 145.089Z" stroke="#5A0808" stroke-opacity="0.4"/>
<path d="M126.477 232.973V232.685C126.477 232.396 126.227 204.473 125.977 202.896C125.9 202.416 125.766 202.223 125.669 202.185C125.535 202.146 125.208 202.339 124.881 202.781C124.535 203.223 124.189 203.3 123.958 203.3C123.554 203.281 123.169 202.992 122.804 202.454C122.573 202.127 122.304 201.973 122.054 202.05C121.881 202.108 121.785 202.242 121.785 202.416C121.785 202.608 121.843 202.896 121.881 203.185C122.016 203.877 122.169 204.723 121.881 205.435C121.708 205.877 121.323 206.185 120.843 206.281C120.169 206.396 119.381 206.069 118.785 205.396C118.093 204.608 118.189 203.742 118.285 202.935C118.323 202.55 118.381 202.146 118.343 201.762C118.285 201.262 118.112 201.108 117.9 200.935C117.669 200.723 117.362 200.473 117.535 199.8C117.631 199.435 117.593 199.108 117.439 198.858C117.285 198.627 117.016 198.473 116.669 198.416C115.823 198.281 115.766 197.435 115.727 196.762C115.708 196.569 115.708 196.377 115.669 196.185C115.631 195.877 115.439 195.839 114.612 195.896C114.4 195.916 114.189 195.935 113.958 195.935C112.823 195.935 112.573 195.454 112.439 194.377C112.381 193.877 112.323 193.839 112.227 193.781C112.131 193.723 111.996 193.666 111.823 193.473C111.727 193.512 111.496 193.704 111.343 193.839C111.054 194.089 110.727 194.396 110.343 194.531C110.035 194.646 109.727 194.608 109.458 194.416C108.9 194.031 108.516 193.031 108.516 191.954C108.516 191.55 108.439 191.435 108.381 191.377C108.285 191.3 108.093 191.319 107.862 191.339C107.689 191.358 107.516 191.377 107.343 191.358C106.804 191.3 105.823 191.05 105.131 189.916C104.939 189.589 104.689 189.608 104.093 189.723C103.689 189.8 103.227 189.896 102.804 189.646C102.727 189.589 102.65 189.569 102.612 189.589C102.458 189.646 102.304 189.992 102.169 190.3C102.093 190.492 101.996 190.685 101.9 190.858C101.727 191.146 101.535 191.281 101.4 191.377C101.227 191.492 101.208 191.512 101.266 191.839C101.4 192.742 100.804 193.627 100.785 193.666L100.727 193.762L100.612 193.781C100.612 193.781 99.8041 193.954 99.4964 194.454C99.3426 194.704 99.1502 194.723 99.0349 194.723C98.5541 194.704 98.0733 193.954 97.7656 193.416C97.3618 193.416 96.3425 193.396 95.2079 193.166C93.7849 192.858 93.5926 192.166 93.3041 191.108C93.2656 190.973 93.2272 190.819 93.1887 190.666C92.881 189.569 92.1502 188.762 91.131 188.377C90.9772 188.319 90.8426 188.262 90.7079 188.223C89.9195 187.935 89.2272 187.704 89.0925 186.858C88.9964 186.185 88.2079 185.627 87.3041 185.012L87.1887 184.935C86.3233 184.358 86.1887 184.242 86.1887 183.281C86.1887 182.666 85.631 182.319 84.5349 182.262C83.6118 182.204 83.1502 181.627 82.6887 181.069C82.5156 180.858 82.3233 180.627 82.131 180.454C81.4964 179.877 80.4195 179.608 78.7272 179.608C77.2079 179.608 76.1695 179.723 75.4387 180.3C74.5733 180.973 72.631 181.8 71.2079 182.262C70.0925 182.627 68.9772 182.3 67.9772 182.012C67.5349 181.877 67.1118 181.762 66.7272 181.704C65.6695 181.55 65.2464 180.935 64.7849 180.281C64.6118 180.031 64.4195 179.762 64.1887 179.492C63.5925 178.8 62.881 177.069 62.2464 175.531C61.9387 174.762 61.6502 174.05 61.4195 173.589C60.8041 172.377 59.5156 172.069 59.5156 172.069L59.631 171.512C59.6887 171.531 61.2079 171.877 61.9387 173.339C62.1695 173.819 62.4772 174.55 62.7849 175.319C63.3618 176.742 64.0733 178.492 64.631 179.108C64.881 179.396 65.0925 179.685 65.2656 179.935C65.7079 180.569 65.9964 180.992 66.8233 181.108C67.2464 181.166 67.6887 181.3 68.1502 181.435C69.1118 181.704 70.0925 181.992 71.0349 181.685C72.4579 181.204 74.3233 180.416 75.1118 179.8C75.9772 179.127 77.1118 178.992 78.7656 178.992C80.6118 178.992 81.8041 179.319 82.5541 179.992C82.7849 180.204 82.9772 180.435 83.1695 180.666C83.5925 181.166 83.9387 181.608 84.6118 181.646C86.5156 181.762 86.8041 182.685 86.8041 183.242C86.8041 183.916 86.8041 183.916 87.5541 184.416L87.6695 184.492C88.7079 185.185 89.5733 185.839 89.7079 186.742C89.7849 187.242 90.1502 187.377 90.9387 187.666C91.0733 187.723 91.2272 187.762 91.381 187.819C92.5733 188.262 93.4195 189.223 93.7849 190.492C93.8233 190.646 93.8618 190.8 93.9002 190.935C94.1695 191.935 94.2849 192.339 95.3618 192.589C96.7272 192.877 97.9387 192.839 97.9579 192.839H98.1502L98.2272 193.012C98.4964 193.531 98.8618 194.031 99.0349 194.146C99.4002 193.589 100.093 193.339 100.381 193.262C100.496 193.05 100.804 192.492 100.708 191.954C100.612 191.339 100.804 191.127 101.093 190.935C101.208 190.858 101.323 190.762 101.439 190.589C101.516 190.454 101.593 190.281 101.669 190.108C101.862 189.666 102.054 189.223 102.458 189.089C102.669 189.012 102.9 189.05 103.131 189.185C103.362 189.319 103.669 189.262 104.016 189.185C104.535 189.089 105.227 188.954 105.65 189.646C106.208 190.569 106.996 190.762 107.419 190.819C107.535 190.839 107.669 190.819 107.823 190.8C108.15 190.762 108.516 190.723 108.785 190.973C108.996 191.166 109.112 191.492 109.112 191.973C109.112 192.839 109.4 193.685 109.804 193.954C109.919 194.031 110.035 194.05 110.15 193.992C110.439 193.877 110.727 193.627 110.977 193.396C111.304 193.108 111.573 192.858 111.881 192.877C111.977 192.877 112.131 192.916 112.266 193.069C112.362 193.166 112.419 193.204 112.496 193.242C112.785 193.396 112.919 193.569 113.016 194.262C113.131 195.185 113.246 195.319 113.977 195.319C114.169 195.319 114.381 195.3 114.573 195.281C115.246 195.223 116.112 195.166 116.246 196.05C116.285 196.262 116.285 196.473 116.304 196.685C116.343 197.416 116.4 197.742 116.746 197.8C117.246 197.877 117.669 198.127 117.919 198.492C118.169 198.877 118.227 199.358 118.093 199.877C118.016 200.204 118.073 200.262 118.266 200.435C118.496 200.646 118.823 200.916 118.9 201.646C118.939 202.089 118.9 202.531 118.843 202.935C118.746 203.685 118.669 204.358 119.208 204.954C119.65 205.473 120.246 205.723 120.727 205.646C120.919 205.608 121.189 205.492 121.323 205.166C121.535 204.608 121.4 203.858 121.285 203.242C121.227 202.896 121.169 202.608 121.169 202.358C121.169 201.935 121.439 201.55 121.843 201.435C122.227 201.319 122.804 201.416 123.246 202.069C123.496 202.435 123.746 202.646 123.939 202.666C124.073 202.666 124.227 202.569 124.381 202.377C124.612 202.089 125.189 201.435 125.785 201.589C126.362 201.742 126.477 202.512 126.516 202.762C126.746 204.3 126.977 229.204 127.016 232.339L155.381 232.223V232.8L126.477 232.973Z" stroke="#5A0808" stroke-opacity="0.4"/>
<path d="M95.4982 255.242C94.4982 255.242 91.729 254.896 91.1905 251.261C90.6521 247.607 91.1136 245.453 91.6521 242.934C91.7482 242.511 91.8444 242.069 91.9213 241.607C92.6713 237.857 93.3444 232.473 92.7867 229.569C92.6905 229.069 92.5944 228.607 92.4982 228.203C92.1713 226.723 91.9598 225.742 92.4405 225.069C92.7675 224.607 93.3828 224.377 94.4021 224.28C96.479 224.107 96.979 223.8 97.8828 223.223C98.1905 223.03 98.5367 222.819 98.9982 222.569C99.9598 222.05 100.921 221.165 101.748 220.396C102.498 219.703 103.171 219.088 103.729 218.838C104.344 218.569 105.325 217.973 105.056 217.069C104.806 216.203 104.479 215.742 104.037 215.665C103.46 215.55 103.537 215.088 103.556 214.877C103.594 214.646 103.575 214.588 103.441 214.511C102.864 214.165 101.652 213.8 101.652 213.8L101.364 213.723L101.46 213.434C101.498 213.319 101.864 212.242 102.267 211.838C102.344 211.723 102.133 211.127 101.787 210.53L99.6713 209.588C98.8828 209.473 98.0751 209.453 97.9213 209.55C97.5367 209.819 96.9021 210.069 96.8828 210.069L96.7867 210.107L94.5944 209.473C94.2674 209.415 90.9405 208.838 90.1713 206.415C89.8444 205.396 89.479 204.838 89.2098 204.434C88.8636 203.896 88.5944 203.511 88.9405 202.742C89.2098 202.127 89.2482 201.761 89.2675 201.396C89.2867 201.127 89.3059 200.857 89.4213 200.53C89.6521 199.838 89.6521 199.376 89.6521 198.646C89.6521 197.992 89.6521 197.088 89.5367 196.761C89.5175 196.723 89.4982 196.665 89.4982 196.607C89.4021 196.3 89.3828 196.165 88.7675 196.319C88.4021 196.415 88.0944 196.55 87.8059 196.684C87.2675 196.915 86.7675 197.127 86.479 196.703C86.1328 196.184 86.4598 195.184 86.729 194.78L87.479 193.665C87.5751 193.511 87.5367 192.915 87.4405 192.434C87.3251 192.242 86.8251 191.319 86.6136 191.011C86.6136 190.992 85.8059 189.78 86.2675 189.184C86.6136 188.742 87.3251 188.992 87.5559 189.088C89.1136 189.646 89.6136 189.569 90.4598 189.473L90.6521 189.453C91.5367 189.338 92.2674 188.742 92.2867 188.723L92.6521 189.165C92.6136 189.203 91.7867 189.876 90.729 190.011L90.5367 190.03C89.6521 190.146 89.0559 190.223 87.3636 189.626C86.9021 189.473 86.729 189.511 86.7098 189.55C86.5944 189.684 86.8251 190.338 87.0751 190.684C87.3251 191.069 87.9213 192.146 87.9598 192.184L87.979 192.223V192.261C88.0367 192.55 88.229 193.53 87.9405 193.973L87.1905 195.088C86.9598 195.434 86.8059 196.126 86.9405 196.376C87.0559 196.376 87.3444 196.261 87.5559 196.165C87.8444 196.03 88.2098 195.876 88.6136 195.78C89.7674 195.492 89.9405 196.126 90.0367 196.473C90.0559 196.511 90.0559 196.55 90.0751 196.588C90.2098 197.011 90.2098 197.857 90.2098 198.665C90.2098 199.415 90.2098 199.953 89.9405 200.742C89.8444 201.011 89.8251 201.223 89.8059 201.473C89.7674 201.857 89.7482 202.3 89.4213 203.011C89.2098 203.492 89.3059 203.646 89.6521 204.146C89.9405 204.588 90.3251 205.184 90.6713 206.28C91.3444 208.434 94.6136 208.934 94.6521 208.953H94.6905L96.7098 209.53C96.8828 209.453 97.3059 209.28 97.5559 209.107C97.979 208.819 99.229 208.992 99.7482 209.069H99.7867L102.133 210.107L102.171 210.184C102.479 210.646 103.114 211.8 102.633 212.28C102.441 212.473 102.21 212.973 102.056 213.376C102.479 213.511 103.229 213.78 103.691 214.05C104.171 214.338 104.114 214.761 104.075 214.992C104.075 215.03 104.056 215.088 104.056 215.107C104.056 215.107 104.075 215.107 104.094 215.107C104.767 215.242 105.248 215.838 105.556 216.915C105.825 217.876 105.229 218.78 103.902 219.357C103.421 219.569 102.787 220.165 102.094 220.819C101.229 221.627 100.248 222.53 99.2098 223.069C98.7675 223.3 98.4213 223.511 98.1136 223.703C97.1713 224.28 96.5944 224.646 94.3828 224.838C93.5559 224.915 93.0559 225.088 92.8444 225.396C92.4982 225.857 92.7098 226.8 92.9982 228.069C93.0944 228.492 93.1905 228.953 93.2867 229.453C94.0175 233.3 92.6905 240.338 92.4213 241.723C92.3251 242.184 92.229 242.626 92.1328 243.05C91.6136 245.511 91.1521 247.626 91.6713 251.165C92.1713 254.55 94.7482 254.684 95.4982 254.665C95.7098 253.723 96.0559 251.703 95.7098 250.819C95.5559 250.415 95.4021 249.973 95.2482 249.511C94.9405 248.55 94.6136 247.55 94.1328 246.915C93.7674 246.434 93.6905 245.915 93.9405 245.492C94.2098 245.03 94.8444 244.761 95.5175 244.838C96.2675 244.934 96.6905 244.665 96.7675 244.607C96.9021 244.434 97.6713 243.607 98.7674 243.357C99.8251 243.126 100.498 243.896 101.017 244.511C101.152 244.665 101.267 244.8 101.383 244.915C101.517 245.05 101.806 245.126 102.152 245.107C102.941 245.069 103.883 244.665 104.306 244.184C105.114 243.242 105.825 242.973 107.691 242.607C109.287 242.28 109.864 244.011 110.325 245.396C110.498 245.896 110.652 246.376 110.844 246.742C111.21 247.415 111.979 247.242 113.191 246.838C113.729 246.665 114.267 246.492 114.767 246.453C115.46 246.396 115.941 246.473 116.364 246.53C116.883 246.607 117.306 246.665 117.941 246.473C118.306 246.357 118.537 246.203 118.614 245.992C118.71 245.742 118.594 245.376 118.287 244.915C117.883 244.319 118.229 244.03 118.421 243.857C118.594 243.723 118.729 243.607 118.729 243.261C118.729 242.146 119.748 241.992 120.421 241.896C120.517 241.876 120.614 241.876 120.71 241.857C120.902 241.819 121.094 241.876 121.229 242.011C121.633 242.376 121.671 243.319 121.671 243.838L155.479 244.088V244.665L121.075 244.415L121.094 244.107C121.133 243.434 121.056 242.607 120.844 242.434C120.825 242.415 120.825 242.415 120.806 242.415C120.71 242.434 120.614 242.453 120.517 242.453C119.71 242.569 119.325 242.684 119.325 243.242C119.325 243.857 118.998 244.127 118.806 244.28C118.767 244.319 118.691 244.376 118.691 244.396C118.691 244.396 118.71 244.453 118.787 244.569C119.21 245.184 119.325 245.723 119.171 246.165C119.037 246.55 118.691 246.838 118.133 246.992C117.383 247.223 116.864 247.146 116.325 247.069C115.902 247.011 115.479 246.953 114.864 247.011C114.421 247.05 113.902 247.223 113.402 247.376C112.267 247.742 110.979 248.165 110.364 247.011C110.152 246.607 109.979 246.107 109.806 245.569C109.267 243.992 108.844 242.953 107.825 243.165C105.941 243.55 105.441 243.78 104.767 244.55C104.171 245.242 103.037 245.646 102.21 245.665C101.671 245.684 101.267 245.569 100.998 245.3C100.864 245.165 100.729 245.011 100.594 244.857C100.094 244.28 99.6136 243.723 98.9021 243.896C97.9021 244.127 97.2098 244.953 97.2098 244.973L97.1713 245.011C97.1521 245.03 96.5559 245.53 95.4598 245.396C95.0174 245.338 94.6136 245.492 94.4598 245.761C94.3059 246.03 94.4598 246.338 94.6136 246.55C95.1521 247.261 95.4982 248.3 95.8251 249.319C95.979 249.78 96.1136 250.203 96.2675 250.588C96.7867 251.896 96.0559 254.857 96.0367 254.973L95.9982 255.165L95.8059 255.184C95.8444 255.242 95.7098 255.242 95.4982 255.242Z" stroke="#5A0808" stroke-opacity="0.4"/>
<path d="M42.4591 223.185C41.8822 223.185 41.3245 223.012 40.7091 222.57C39.4591 221.704 36.2476 220.223 33.2284 219.377C30.1322 218.512 26.4976 216.339 26.3438 216.243L26.6322 215.743C26.6707 215.762 30.363 217.973 33.3822 218.82C36.4591 219.685 39.7476 221.185 41.0361 222.089C42.1707 222.877 42.9591 222.646 44.613 222.05C46.363 221.416 50.2861 219.454 53.0938 217.377C55.7668 215.396 60.2091 213.281 63.2091 212.127C65.7476 211.166 71.0168 209.146 74.4784 207.55C75.8053 206.935 76.4591 206.223 76.363 205.55C76.2668 204.993 75.6707 204.55 75.1899 204.512C74.9591 204.493 74.7284 204.473 74.4784 204.454C73.5745 204.396 72.4591 204.32 69.8245 203.627C67.1514 202.935 67.0361 201.108 66.9399 199.646C66.9014 199.166 66.8822 198.723 66.7668 198.358C66.2668 196.858 65.2861 194.8 64.2284 193.627C63.0168 192.281 63.4014 190.454 63.9207 188.839C64.3437 187.512 64.1899 185.473 64.0745 183.82C64.0553 183.627 64.0553 183.454 64.0361 183.281C63.9014 181.493 64.6707 179.954 64.7091 179.896L65.2284 180.166C65.2284 180.185 64.4976 181.627 64.613 183.262C64.6322 183.435 64.6322 183.608 64.6514 183.8C64.7861 185.493 64.9399 187.608 64.4784 189.05C63.9784 190.589 63.6514 192.166 64.6707 193.281C65.7861 194.531 66.8053 196.646 67.3438 198.223C67.4784 198.646 67.5168 199.127 67.5361 199.646C67.613 201.07 67.7091 202.531 69.9784 203.108C72.5745 203.781 73.6514 203.858 74.5361 203.916C74.7861 203.935 75.0168 203.954 75.2668 203.973C75.9591 204.05 76.8053 204.666 76.9399 205.493C77.0553 206.166 76.7668 207.166 74.7284 208.108C71.2476 209.723 65.9591 211.743 63.4207 212.704C60.4591 213.839 56.0745 215.935 53.4399 217.877C50.5937 219.993 46.5938 221.993 44.8053 222.627C43.863 222.935 43.1322 223.185 42.4591 223.185Z" stroke="#5A0808" stroke-opacity="0.4"/>
<path d="M96.6503 269.012L97.208 269.166C97.2273 269.108 97.5927 267.646 96.4196 265.973C96.0927 265.493 95.7465 265.089 95.4388 264.743C94.6696 263.858 94.1696 263.281 94.4773 262.377C94.7465 261.55 94.9773 261.166 95.208 260.743C95.3811 260.416 95.5734 260.089 95.8042 259.55C96.3042 258.358 96.1503 257.493 96.0157 256.781C95.9965 256.685 95.9965 256.608 95.9773 256.531C95.8427 255.762 95.6119 254.935 95.5927 254.896L95.035 255.05C95.035 255.05 95.285 255.896 95.4003 256.608C95.4003 256.685 95.4196 256.781 95.4388 256.858C95.5542 257.512 95.6888 258.281 95.2657 259.3C95.0542 259.82 94.8811 260.127 94.708 260.435C94.458 260.877 94.208 261.3 93.9196 262.185C93.5157 263.416 94.208 264.204 94.9965 265.108C95.3042 265.454 95.6311 265.839 95.9388 266.281C96.958 267.743 96.6696 268.954 96.6503 269.012ZM96.6503 269.012L96.9196 269.089" stroke="#5A0808" stroke-opacity="0.4"/>
<path d="M112.364 193.704L112.076 193.204C112.076 193.204 113.038 192.627 113.288 191.896C113.403 191.55 113.326 191.358 113.211 191.05C113.095 190.742 112.961 190.377 112.999 189.819C113.076 189.069 112.903 188.935 111.634 188.646C110.557 188.396 110.499 187.338 110.422 186.415C110.403 186.05 110.364 185.685 110.288 185.358C110.268 185.242 110.23 185.127 110.211 185.011C109.999 184.031 109.864 183.435 108.461 182.569C107.172 181.781 106.461 180.781 105.845 179.896C105.634 179.588 105.441 179.319 105.23 179.05C104.345 177.973 105.114 176.588 105.691 175.588C105.749 175.492 105.807 175.396 105.864 175.3C105.922 175.204 105.98 175.108 106.018 175.011C106.499 174.108 106.999 173.165 108.076 173.588C108.768 173.858 109.114 173.704 109.691 172.877C110.211 172.127 110.864 172.319 111.576 172.511C111.845 172.588 112.153 172.685 112.48 172.723C113.095 172.819 113.307 172.473 113.634 171.858C113.768 171.608 113.903 171.358 114.076 171.146C114.557 170.569 114.518 170.011 113.922 169.396C113.288 168.742 113.441 168.031 113.634 167.185C113.711 166.858 113.788 166.492 113.826 166.088C113.922 165.338 113.384 164.973 112.634 164.55C112.288 164.358 111.999 164.204 111.826 163.954C111.422 163.338 110.749 162.665 110.076 162.588C109.153 162.492 109.249 161.646 109.307 161.031C109.326 160.838 109.345 160.627 109.345 160.454C109.345 160.396 109.345 160.281 109.288 160.261C109.172 160.165 108.749 160.242 108.441 160.3C108.288 160.319 108.134 160.358 107.98 160.377C107.461 160.454 107.23 160.108 107.038 159.838C106.864 159.588 106.691 159.338 106.23 159.261C105.076 159.069 104.788 158.915 104.788 158.05C104.788 157.569 104.441 157.319 103.768 157.319C103.48 157.319 103.326 157.185 103.23 157.088C102.903 156.704 103.038 155.973 103.172 155.204C103.23 154.915 103.268 154.646 103.288 154.396C103.345 153.742 103.23 153.646 102.749 153.261C102.614 153.146 102.441 153.031 102.268 152.858C101.999 152.627 101.941 152.377 101.941 152.204C101.941 151.608 102.595 151.05 103.153 150.569C103.384 150.377 103.595 150.184 103.711 150.05C103.999 149.704 103.691 149.184 103.211 148.473C103.114 148.338 103.018 148.204 102.941 148.069C102.807 147.858 102.768 147.646 102.807 147.435C102.903 147.05 103.307 146.838 103.73 146.608C103.999 146.454 104.268 146.319 104.48 146.127C104.884 145.781 104.884 145.281 104.884 144.704C104.884 144.396 104.884 144.069 104.961 143.742C105.057 143.319 104.961 143.127 104.845 142.877C104.749 142.665 104.634 142.435 104.595 142.088C104.557 141.723 104.595 141.531 104.614 141.396C104.634 141.261 104.653 141.204 104.538 140.973C104.153 140.184 104.345 139.588 105.345 138.588C105.518 138.415 105.595 138.261 105.576 138.088C105.557 137.665 104.98 137.204 104.538 136.819C104.345 136.665 104.172 136.531 104.038 136.396C103.749 136.108 103.634 135.858 103.634 135.608C103.653 135.223 103.98 134.934 104.345 134.627C104.403 134.588 104.441 134.531 104.499 134.492C104.941 134.108 104.441 133.319 104.441 133.3L104.922 132.992C105.211 133.454 105.538 134.358 104.864 134.935C104.807 134.973 104.749 135.031 104.691 135.069C104.422 135.281 104.191 135.492 104.172 135.627C104.172 135.704 104.249 135.838 104.403 135.992C104.518 136.108 104.691 136.242 104.864 136.396C105.403 136.838 106.095 137.415 106.114 138.088C106.134 138.415 105.999 138.723 105.711 139.011C104.672 140.05 104.845 140.377 105.018 140.723C105.211 141.088 105.191 141.261 105.153 141.492C105.134 141.608 105.114 141.742 105.134 142.031C105.172 142.281 105.249 142.454 105.326 142.627C105.461 142.915 105.634 143.261 105.499 143.877C105.441 144.127 105.441 144.415 105.441 144.704C105.441 145.338 105.441 146.031 104.845 146.569C104.576 146.8 104.268 146.973 103.999 147.127C103.711 147.281 103.403 147.454 103.364 147.608C103.345 147.665 103.384 147.742 103.422 147.781C103.499 147.896 103.595 148.031 103.672 148.165C104.153 148.858 104.749 149.742 104.134 150.454C103.98 150.627 103.749 150.838 103.499 151.05C103.076 151.415 102.499 151.915 102.48 152.242C102.48 152.3 102.499 152.377 102.595 152.473C102.768 152.627 102.922 152.742 103.057 152.858C103.634 153.3 103.903 153.569 103.807 154.492C103.788 154.761 103.73 155.05 103.672 155.338C103.576 155.819 103.461 156.569 103.595 156.742C103.595 156.742 103.614 156.781 103.691 156.781C104.691 156.781 105.288 157.261 105.288 158.088C105.288 158.569 105.288 158.569 106.249 158.742C106.961 158.858 107.23 159.261 107.441 159.569C107.614 159.838 107.672 159.877 107.845 159.858C107.98 159.838 108.134 159.819 108.268 159.781C108.749 159.685 109.268 159.588 109.595 159.858C109.768 159.992 109.864 160.223 109.864 160.511C109.864 160.723 109.845 160.954 109.826 161.165C109.749 161.973 109.807 162.069 110.076 162.088C111.172 162.204 111.999 163.358 112.23 163.704C112.307 163.819 112.576 163.973 112.826 164.108C113.48 164.473 114.48 165.011 114.326 166.223C114.268 166.646 114.191 167.031 114.114 167.358C113.922 168.242 113.864 168.646 114.249 169.05C115.057 169.858 115.114 170.781 114.441 171.588C114.307 171.761 114.191 171.973 114.076 172.204C113.768 172.8 113.384 173.531 112.326 173.377C111.961 173.319 111.634 173.223 111.345 173.146C110.614 172.935 110.364 172.877 110.095 173.281C109.595 174.011 108.999 174.685 107.788 174.204C107.249 173.992 106.98 174.338 106.441 175.358C106.384 175.454 106.326 175.55 106.288 175.665C106.23 175.761 106.172 175.858 106.114 175.973C105.576 176.934 104.961 178.011 105.595 178.781C105.826 179.05 106.018 179.338 106.249 179.646C106.845 180.473 107.499 181.415 108.691 182.146C110.307 183.127 110.48 183.934 110.691 184.954C110.711 185.069 110.749 185.184 110.768 185.3C110.845 185.665 110.884 186.069 110.903 186.435C110.961 187.396 111.038 187.992 111.672 188.146C112.864 188.415 113.595 188.665 113.48 189.935C113.441 190.358 113.538 190.608 113.653 190.896C113.788 191.223 113.922 191.608 113.749 192.146C113.518 193.011 112.422 193.684 112.364 193.704Z" stroke="#5A0808" stroke-opacity="0.4"/>
<circle cx="104.5" cy="214.5" r="9.5" fill="#5A0808"/>
<circle cx="104.5" cy="214.5" r="2.5" fill="#FEE473"/>
<circle cx="58.5" cy="104.5" r="9.5" fill="#5A0808"/>
<circle cx="58.5" cy="104.5" r="2.5" fill="#FEE473"/>
</g>
<defs>
<clipPath id="clip0_342_749">
<rect width="250" height="286.846" fill="white" transform="translate(0 0.376953)"/>
</clipPath>
</defs>
</svg>
