<svg width="24" height="24" viewBox="0 0 24 24" fill="none" xmlns="http://www.w3.org/2000/svg">
<g clip-path="url(#clip0_342_736)">
<path d="M17.5034 0H6.49657C2.9143 0 0 2.9143 0 6.49657V17.5036C0 21.0857 2.9143 24 6.49657 24H17.5036C21.0857 24 24 21.0857 24 17.5036V6.49657C24 2.9143 21.0857 0 17.5034 0ZM12 18.5623C8.38145 18.5623 5.43767 15.6185 5.43767 12C5.43767 8.38145 8.38145 5.43767 12 5.43767C15.6185 5.43767 18.5623 8.38145 18.5623 12C18.5623 15.6185 15.6185 18.5623 12 18.5623ZM18.7192 6.98528C17.6499 6.98528 16.7801 6.11553 16.7801 5.04619C16.7801 3.97686 17.6499 3.10693 18.7192 3.10693C19.7885 3.10693 20.6585 3.97686 20.6585 5.04619C20.6585 6.11553 19.7885 6.98528 18.7192 6.98528Z" fill="#5A0808"/>
<path d="M11.9991 6.8457C9.15655 6.8457 6.84375 9.15832 6.84375 12.001C6.84375 14.8436 9.15655 17.1564 11.9991 17.1564C14.8418 17.1564 17.1544 14.8436 17.1544 12.001C17.1544 9.15832 14.8418 6.8457 11.9991 6.8457Z" fill="#5A0808"/>
<path d="M18.7196 4.51367C18.4263 4.51367 18.1875 4.75244 18.1875 5.04578C18.1875 5.33911 18.4263 5.57788 18.7196 5.57788C19.0131 5.57788 19.2519 5.33929 19.2519 5.04578C19.2519 4.75226 19.0131 4.51367 18.7196 4.51367Z" fill="#5A0808"/>
</g>
<defs>
<clipPath id="clip0_342_736">
<rect width="24" height="24" fill="white"/>
</clipPath>
</defs>
</svg>
