<svg width="24" height="25" viewBox="0 0 24 25" fill="none" xmlns="http://www.w3.org/2000/svg">
<g clip-path="url(#clip0_323_400)">
<path d="M23.4168 11.3816L21.78 9.74505C21.3915 9.35657 21.0732 8.58886 21.0732 8.0383V5.7238C21.0732 4.6228 20.1737 3.72337 19.073 3.72279H16.7576C16.2077 3.72279 15.4391 3.40385 15.0506 3.01566L13.414 1.37911C12.6364 0.601495 11.3632 0.601495 10.5856 1.37911L8.94901 3.01684C8.56017 3.40532 7.7907 3.72337 7.24196 3.72337H4.92746C3.82793 3.72337 2.92733 4.6228 2.92733 5.7238V8.03836C2.92733 8.58675 2.60904 9.35686 2.2205 9.74511L0.583649 11.3817C-0.19455 12.1593 -0.19455 13.4325 0.583649 14.2113L2.2205 15.8479C2.60927 16.2364 2.92733 17.0062 2.92733 17.5546V19.8692C2.92733 20.969 3.82793 21.8696 4.92746 21.8696H7.24202C7.79193 21.8696 8.56052 22.1879 8.94907 22.5762L10.5856 24.2133C11.3632 24.9903 12.6364 24.9903 13.4141 24.2133L15.0506 22.5762C15.4394 22.1877 16.2077 21.8696 16.7577 21.8696H19.0731C20.1738 21.8696 21.0732 20.969 21.0732 19.8692V17.5546C21.0732 17.0038 21.3918 16.2361 21.7801 15.8479L23.4169 14.2113C24.1939 13.4325 24.1939 12.1592 23.4168 11.3816ZM10.4122 17.2962L5.9994 12.8829L7.41365 11.4689L10.4125 14.4678L16.5857 8.29606L17.9996 9.71001L10.4122 17.2962Z" fill="#5A0808"/>
</g>
<defs>
<clipPath id="clip0_323_400">
<rect width="24" height="24" fill="white" transform="translate(0 0.795898)"/>
</clipPath>
</defs>
</svg>
