<svg width="26" height="26" viewBox="0 0 26 26" fill="none" xmlns="http://www.w3.org/2000/svg">
<path fill-rule="evenodd" clip-rule="evenodd" d="M19.9367 24.6797C22.5454 24.6797 24.6797 22.5454 24.6797 19.9367V6.06333C24.6797 3.4547 22.5454 1.32031 19.9367 1.32031H6.06333C3.45465 1.32031 1.32031 3.4547 1.32031 6.06333V19.9367C1.32031 22.5454 3.45465 24.6797 6.06333 24.6797H19.9367ZM20.3686 4.83203L14.7496 11.8353L22.2378 21.1684H16.8728L12.0668 15.1787L7.26141 21.1684H5.63387L11.2533 14.1646L3.76562 4.83203H9.13066L13.9361 10.8212L18.741 4.83203H20.3686ZM8.52129 6.10151H6.41133L17.4816 19.8988H19.5916L8.52129 6.10151Z" fill="#5A0808"/>
</svg>
