<svg width="53" height="52" viewBox="0 0 53 52" fill="none" xmlns="http://www.w3.org/2000/svg">
<path d="M12.2959 49.0397C17.3641 47.5599 29.2137 48.5701 34.4565 49.1882C36.5651 49.437 41.1603 50.0012 43.1753 50.0012C45.1001 50.0012 46.3413 49.5685 46.9614 48.6838C47.3091 48.1877 47.6074 47.3107 47.0547 45.9528C46.4751 44.5277 44.8696 42.2182 44.1865 40.9421C41.0495 35.0786 43.7181 31.6002 45.4594 23.9396C46.974 17.2753 44.2219 13.4582 43.2163 12.3284C45.0132 9.41607 45.0551 6.20464 43.2007 4.44451C41.0255 2.39104 37.0092 3.06176 34.0331 5.89007C33.2386 3.80181 31.7513 2.36974 29.9409 2.06023C26.9721 1.55346 23.989 4.19585 22.8501 8.09807C22.4843 7.53295 22.0666 6.9854 21.5879 6.46258C18.3657 2.95525 13.7046 1.97478 11.1987 4.27703C9.09323 6.20721 9.15586 9.8745 11.2264 13.1264C7.34458 20.311 10.0786 25.7656 11.0854 27.3664C10.8222 27.7482 10.5659 28.1725 10.3198 28.6335C9.06638 30.9806 8.41745 33.7927 8.44284 36.7658L8.48093 41.2204C8.49265 42.5803 7.96482 43.9098 6.95456 45.0646C6.4863 45.6008 5.06101 47.2316 5.89157 48.5319C7.13767 50.4816 12.2441 49.0558 12.2959 49.0397ZM42.7319 6.35375C43.4309 7.82427 43.0371 10.0561 41.6245 12.0455C40.8081 12.4214 38.7253 13.2953 35.7893 13.9753C38.1546 11.0504 37.6749 8.40758 42.7319 6.35375ZM41.6593 5.18303C35.9372 7.7297 36.831 11.1558 33.8082 13.9057C34.6601 11.7999 34.8612 9.59935 34.493 7.57439C34.5656 7.49151 34.6321 7.40825 34.7099 7.32586C36.925 4.98864 39.8786 4.13415 41.6593 5.18303ZM32.9634 7.51336C33.2202 8.66472 33.2422 9.94451 33.0259 11.2165C32.8018 12.5618 32.3926 13.5813 31.7696 14.6612C30.8873 14.7588 29.9643 14.8248 29.0056 14.8512C29.2979 10.9231 27.3776 8.7628 30.6797 3.90923C31.7595 4.52904 32.5987 5.81591 32.9634 7.51336ZM29.1518 3.50133C25.8493 8.65291 27.8218 11.2313 27.4961 14.8654C26.4685 14.8606 25.4741 14.828 24.5141 14.7729C22.566 10.331 25.2659 3.54561 29.1518 3.50133ZM20.4824 7.47625C21.3276 8.39971 21.9924 9.4414 22.4184 10.4955C22.3037 11.8484 22.4314 13.1777 22.7868 14.3751C22.7607 14.4662 22.7358 14.5587 22.7052 14.6424C22.573 14.6308 22.4361 14.6213 22.3059 14.6089C19.0954 10.148 15.298 11.5396 13.1096 4.812C15.1291 3.94567 18.1915 4.98376 20.4824 7.47625ZM11.8645 5.80706C14.0015 11.7834 17.4532 11.7187 20.1338 14.3601C16.7143 13.9084 14.1357 13.2726 12.9231 12.9369C11.0134 10.3729 10.6086 7.46557 11.8645 5.80706ZM8.08396 46.0519C9.32175 44.6364 9.99558 42.9162 9.98093 41.2077L9.94284 36.7531C9.9194 34.03 10.5078 31.4665 11.643 29.34C11.7871 29.0703 11.9347 28.8191 12.084 28.5814C13.1352 29.686 15.3501 31.8313 17.9511 33.2765C18.3097 33.4756 18.768 33.3502 18.9712 32.985C19.1723 32.6227 19.0415 32.1662 18.6797 31.965C15.4598 30.1768 12.7663 27.1172 12.5881 26.9122C12.477 26.7644 8.66098 21.5713 12.2925 14.321C21.4919 16.9789 33.4819 17.454 42.1938 13.4387C42.6301 13.9599 43.3994 15.0502 43.9041 16.7194C43.5815 17.4128 42.2822 19.6377 38.7856 19.9128C34.2792 20.2645 31.0926 18.5411 25.311 20.3073C24.915 20.4284 24.6919 20.8473 24.813 21.2438C24.9349 21.6429 25.3577 21.862 25.7495 21.7419C31.2449 20.0649 34.0855 21.7841 38.9028 21.4079C41.7037 21.1878 43.3742 19.9181 44.3215 18.7976C45.0033 25.0345 40.54 31.1898 41.3542 37.1783C40.778 37.9167 38.497 40.4887 34.0591 41.3766C33.6528 41.4577 33.3891 41.8527 33.4707 42.259C33.5511 42.6609 33.9417 42.9288 34.353 42.8473C38.1561 42.0868 40.5263 40.2368 41.7479 38.9968C42.0044 39.8449 42.3689 40.7244 42.8642 41.6501C43.5361 42.9052 45.1643 45.2854 45.665 46.5178C45.9048 47.1061 45.9272 47.5451 45.7329 47.8229C45.5718 48.0529 44.9458 48.5749 42.6953 48.4919C40.7202 48.4167 37.7632 48.068 34.6323 47.6989C28.9468 47.0282 17.3489 45.9989 11.875 47.6003C9.98532 48.1515 7.47165 48.2179 7.15573 47.7243C7.09763 47.633 7.14255 47.1296 8.08396 46.0519Z" fill="#5A0808"/>
<path d="M21.9412 38.7307C21.9971 38.8091 22.0616 38.8792 22.14 38.9295C24.4206 41.3454 28.5229 40.3605 31.1734 38.3105C34.022 36.1072 35.9412 32.0942 33.8423 29.3798C31.7385 26.6599 27.3681 27.52 24.5274 29.7172C21.2237 32.2719 20.0264 36.2783 21.8584 38.6479C21.8826 38.6791 21.9163 38.7003 21.9412 38.7307ZM30.2554 37.124C28.5133 38.4714 25.8663 39.4282 23.9388 38.4319C25.687 37.4229 26.6075 36.1776 27.4248 35.0551C28.6198 33.4141 29.6641 31.9859 33.0723 31.1724C33.6898 33.2895 32.0429 35.742 30.2554 37.124ZM25.4453 30.9037C27.273 29.4902 30.3789 28.4334 32.2007 29.8506C28.6595 30.8252 27.4131 32.5229 26.2124 34.1718C25.3593 35.3431 24.5399 36.4536 22.8283 37.3318C21.9334 35.5875 23.027 32.7736 25.4453 30.9037Z" fill="#5A0808"/>
</svg>
