<svg xmlns="http://www.w3.org/2000/svg" xmlns:xlink="http://www.w3.org/1999/xlink" width="500" zoomAndPan="magnify" viewBox="0 0 375 374.999991" height="500" preserveAspectRatio="xMidYMid meet" version="1.0"><defs><clipPath id="3df20c07e6"><path d="M 18.878906 18.878906 L 356.378906 18.878906 L 356.378906 356.378906 L 18.878906 356.378906 Z M 18.878906 18.878906 " clip-rule="nonzero"/></clipPath></defs><rect x="-37.5" width="450" fill="#ffffff" y="-37.499999" height="449.999989" fill-opacity="1"/><rect x="-37.5" width="450" fill="#ffffff" y="-37.499999" height="449.999989" fill-opacity="1"/><g clip-path="url(#3df20c07e6)"><path fill="#5a0808" d="M 187.628906 356.378906 C 280.828125 356.378906 356.378906 280.828125 356.378906 187.628906 C 356.378906 95.628906 282.757812 20.824219 191.214844 18.917969 L 191.234375 18.878906 L 191.195312 18.917969 C 190.011719 18.894531 188.824219 18.878906 187.628906 18.878906 C 94.433594 18.878906 18.878906 94.433594 18.878906 187.628906 C 18.878906 272.8125 81.992188 343.25 164.007812 354.738281 C 163.476562 355.179688 163.191406 355.394531 163.191406 355.394531 L 164.203125 354.992188 L 164.335938 354.933594 L 164.585938 354.820312 C 172.121094 355.847656 179.8125 356.378906 187.628906 356.378906 Z M 164.585938 354.820312 L 164.007812 354.738281 C 164.546875 354.292969 165.34375 353.617188 166.363281 352.699219 C 168.382812 350.878906 171.28125 348.183594 174.722656 344.542969 C 178.160156 340.902344 182.070312 336.320312 186.046875 330.722656 C 188 327.894531 190.023438 324.925781 191.910156 321.625 C 193.796875 318.320312 195.617188 314.816406 197.234375 311.109375 C 200.539062 303.625 203.101562 295.199219 204.246094 286.164062 C 204.785156 281.648438 205.121094 276.996094 204.921875 272.210938 C 204.71875 267.425781 204.3125 262.570312 203.371094 257.71875 C 201.617188 247.941406 198.3125 238.035156 193.933594 228.324219 C 193.664062 227.71875 193.375 227.113281 193.089844 226.507812 C 192.804688 225.898438 192.515625 225.292969 192.246094 224.6875 L 190.425781 221.046875 C 190.125 220.4375 189.804688 219.847656 189.484375 219.257812 C 189.164062 218.667969 188.84375 218.078125 188.539062 217.472656 C 187.933594 216.261719 187.257812 215.113281 186.585938 213.96875 C 186.351562 213.566406 186.121094 213.167969 185.890625 212.761719 C 185.460938 212.003906 185.023438 211.226562 184.496094 210.394531 L 182.339844 206.820312 C 181.5625 205.507812 180.804688 204.210938 180.046875 202.914062 C 179.289062 201.617188 178.53125 200.316406 177.753906 199.003906 C 171.890625 188.417969 166.832031 177.296875 163.125 165.835938 C 159.351562 154.445312 156.855469 142.78125 155.710938 131.390625 C 154.566406 119.996094 154.699219 108.875 155.914062 98.492188 L 155.914062 98.488281 C 156.25 95.929688 156.585938 93.367188 156.992188 90.875 C 157.128906 90.152344 157.257812 89.433594 157.390625 88.722656 L 157.390625 88.71875 C 157.710938 86.972656 158.023438 85.25 158.40625 83.527344 C 158.695312 82.414062 158.949219 81.296875 159.207031 80.1875 C 159.492188 78.949219 159.773438 77.722656 160.09375 76.515625 C 160.34375 75.6875 160.578125 74.847656 160.808594 74.015625 C 161.195312 72.609375 161.582031 71.222656 162.046875 69.910156 C 164.8125 61.347656 168.046875 53.730469 171.351562 47.328125 C 174.652344 40.855469 177.957031 35.53125 180.921875 31.285156 C 183.890625 27.035156 186.449219 23.9375 188.269531 21.847656 C 189.144531 20.835938 189.886719 20.027344 190.359375 19.554688 C 190.835938 19.238281 191.101562 19.003906 191.195312 18.917969 L 191.214844 18.917969 C 191.085938 19.144531 190.382812 20.402344 189.347656 22.589844 C 188.136719 25.015625 186.515625 28.65625 184.628906 33.304688 C 182.742188 37.957031 180.652344 43.6875 178.699219 50.292969 C 176.742188 56.898438 174.921875 64.449219 173.507812 72.742188 C 172.160156 81.035156 171.28125 90 171.148438 99.503906 C 171.082031 109.007812 171.820312 118.917969 173.507812 129.03125 C 175.257812 139.140625 178.023438 149.386719 181.730469 159.5 C 185.4375 169.609375 190.089844 179.519531 195.484375 189.160156 C 196.15625 190.339844 196.847656 191.535156 197.539062 192.734375 C 198.230469 193.929688 198.921875 195.125 199.59375 196.304688 L 201.886719 200.148438 C 202.441406 201.058594 203 202.082031 203.554688 203.105469 L 203.558594 203.113281 C 203.742188 203.449219 203.925781 203.789062 204.113281 204.125 L 204.113281 204.128906 C 204.855469 205.476562 205.59375 206.824219 206.269531 208.171875 C 206.492188 208.621094 206.726562 209.070312 206.957031 209.519531 C 207.421875 210.417969 207.886719 211.316406 208.292969 212.214844 C 208.628906 212.890625 208.949219 213.578125 209.269531 214.269531 L 209.269531 214.273438 C 209.589844 214.964844 209.910156 215.652344 210.246094 216.328125 C 210.550781 217.035156 210.851562 217.726562 211.15625 218.417969 C 211.460938 219.109375 211.761719 219.800781 212.066406 220.507812 C 216.71875 231.695312 219.953125 243.425781 221.167969 255.15625 C 221.773438 261.019531 222.042969 266.816406 221.640625 272.480469 C 221.300781 278.144531 220.492188 283.671875 219.210938 288.929688 C 217.929688 294.1875 216.3125 299.175781 214.289062 303.757812 C 212.269531 308.34375 210.042969 312.65625 207.617188 316.566406 C 202.765625 324.386719 197.234375 330.722656 191.976562 335.78125 C 186.71875 340.835938 181.664062 344.679688 177.347656 347.578125 C 173.035156 350.476562 169.460938 352.429688 167.035156 353.644531 C 166.050781 354.136719 165.195312 354.539062 164.585938 354.820312 Z M 129.285156 72.40625 C 129.285156 72.40625 128.949219 73.414062 128.339844 75.304688 L 128.21875 75.738281 C 127.683594 77.605469 126.933594 80.222656 126.183594 83.527344 C 125.375 87.101562 124.5 91.347656 123.824219 96.335938 C 123.152344 101.257812 122.613281 106.785156 122.476562 112.785156 C 122.34375 118.78125 122.613281 125.253906 123.421875 131.929688 C 124.296875 138.601562 125.710938 145.546875 127.800781 152.488281 C 129.890625 159.433594 132.722656 166.375 136.160156 173.183594 C 139.597656 179.992188 143.710938 186.597656 148.226562 192.933594 L 151.734375 197.652344 L 153.757812 200.417969 L 155.574219 202.980469 L 156.519531 204.261719 C 156.714844 204.496094 156.886719 204.773438 157.0625 205.0625 C 157.191406 205.269531 157.320312 205.476562 157.464844 205.675781 C 158.070312 206.6875 158.675781 207.632812 159.351562 208.640625 C 159.65625 209.148438 159.957031 209.636719 160.261719 210.125 C 160.5625 210.613281 160.867188 211.101562 161.171875 211.609375 C 161.441406 212.113281 161.710938 212.601562 161.980469 213.089844 C 162.25 213.578125 162.519531 214.070312 162.789062 214.574219 C 167.101562 222.460938 170.40625 230.886719 172.160156 239.515625 C 173.980469 248.078125 174.25 256.773438 173.101562 264.726562 C 173.070312 264.964844 173.035156 265.21875 173 265.46875 C 172.96875 265.722656 172.933594 265.976562 172.902344 266.210938 C 172.867188 266.449219 172.816406 266.699219 172.765625 266.953125 C 172.714844 267.207031 172.664062 267.457031 172.632812 267.695312 C 172.53125 268.164062 172.429688 268.65625 172.328125 269.144531 C 172.226562 269.632812 172.125 270.121094 172.023438 270.59375 C 171.820312 271.535156 171.550781 272.480469 171.28125 273.355469 C 171.210938 273.609375 171.144531 273.855469 171.078125 274.097656 L 171.078125 274.101562 C 170.894531 274.769531 170.722656 275.410156 170.472656 276.054688 C 169.261719 279.558594 167.914062 282.929688 166.363281 285.960938 C 163.261719 292.03125 159.621094 297.019531 156.046875 301.0625 C 152.476562 305.105469 148.96875 308.207031 146.003906 310.5 C 143.039062 312.859375 140.476562 314.410156 138.789062 315.421875 C 137.914062 315.960938 137.242188 316.296875 136.769531 316.5 C 136.296875 316.703125 136.09375 316.835938 136.09375 316.835938 C 136.09375 316.835938 136.835938 316.027344 138.050781 314.476562 L 138.324219 314.128906 C 139.527344 312.589844 141.230469 310.421875 143.105469 307.667969 C 145.128906 304.703125 147.488281 300.996094 149.644531 296.613281 C 151.867188 292.230469 153.957031 287.175781 155.507812 281.582031 C 157.058594 275.984375 158.070312 269.917969 157.933594 263.515625 C 157.867188 257.109375 156.855469 250.503906 154.765625 243.898438 C 152.675781 237.292969 149.578125 230.6875 145.667969 224.28125 L 144.25 221.855469 C 143.847656 221.300781 143.484375 220.75 143.101562 220.167969 C 142.96875 219.96875 142.835938 219.769531 142.699219 219.5625 L 141.148438 217.269531 L 140.992188 217.03125 C 140.792969 216.726562 140.609375 216.445312 140.339844 216.125 L 139.398438 214.84375 C 137.972656 212.921875 136.527344 210.996094 135.074219 209.058594 L 135.070312 209.058594 L 135.070312 209.054688 C 133.976562 207.597656 132.878906 206.140625 131.78125 204.664062 C 126.589844 197.386719 122.074219 189.632812 118.433594 181.542969 C 114.792969 173.453125 112.097656 165.09375 110.410156 156.804688 C 108.726562 148.511719 108.050781 140.355469 108.253906 132.667969 C 108.285156 131.726562 108.335938 130.785156 108.386719 129.839844 C 108.4375 128.894531 108.488281 127.949219 108.523438 127.007812 C 108.613281 126.152344 108.691406 125.308594 108.769531 124.480469 C 108.859375 123.480469 108.953125 122.503906 109.0625 121.546875 L 109.871094 116.289062 C 109.976562 115.761719 110.078125 115.230469 110.175781 114.703125 C 110.390625 113.550781 110.605469 112.410156 110.882812 111.300781 C 112.363281 104.828125 114.253906 99.097656 116.34375 94.246094 C 118.367188 89.324219 120.523438 85.28125 122.476562 82.042969 C 124.433594 78.808594 126.117188 76.382812 127.332031 74.832031 C 127.753906 74.265625 128.148438 73.796875 128.4375 73.449219 C 128.5625 73.304688 128.664062 73.179688 128.746094 73.078125 C 129.082031 72.605469 129.285156 72.40625 129.285156 72.40625 Z M 226.964844 68.695312 C 227.503906 66.808594 227.910156 65.796875 227.910156 65.796875 C 227.910156 65.796875 227.707031 66 227.503906 66.335938 C 227.398438 66.464844 227.269531 66.609375 227.125 66.769531 C 226.816406 67.113281 226.433594 67.539062 226.019531 68.089844 C 224.808594 69.640625 222.988281 72 221.03125 75.234375 C 219.007812 78.472656 216.851562 82.515625 214.695312 87.371094 C 212.539062 92.222656 210.515625 97.953125 208.964844 104.359375 C 208.5625 105.976562 208.222656 107.660156 207.886719 109.347656 C 207.550781 111.03125 207.28125 112.78125 207.011719 114.535156 L 206.402344 119.996094 L 206 125.660156 C 205.664062 133.34375 206.203125 141.570312 207.753906 149.859375 C 209.300781 158.152344 211.863281 166.578125 215.371094 174.734375 C 218.875 182.824219 223.324219 190.710938 228.378906 198.058594 C 229.957031 200.1875 231.507812 202.347656 233.0625 204.515625 C 233.96875 205.777344 234.878906 207.039062 235.796875 208.304688 L 236.738281 209.585938 C 236.875 209.789062 236.992188 209.972656 237.109375 210.160156 C 237.226562 210.34375 237.34375 210.53125 237.480469 210.730469 L 238.964844 213.023438 C 239.199219 213.394531 239.453125 213.78125 239.707031 214.171875 C 239.957031 214.558594 240.210938 214.945312 240.445312 215.316406 L 241.863281 217.742188 C 245.636719 224.28125 248.671875 230.886719 250.625 237.5625 C 252.648438 244.234375 253.523438 250.839844 253.523438 257.246094 C 253.523438 263.648438 252.445312 269.785156 250.828125 275.3125 C 249.210938 280.839844 247.050781 285.894531 244.761719 290.210938 C 242.46875 294.589844 240.109375 298.230469 238.019531 301.199219 C 235.863281 304.164062 234.109375 306.386719 232.828125 307.9375 C 231.546875 309.421875 230.808594 310.230469 230.808594 310.230469 C 230.808594 310.230469 231.078125 310.09375 231.546875 309.894531 C 231.820312 309.738281 232.15625 309.5625 232.558594 309.351562 C 232.859375 309.191406 233.195312 309.015625 233.570312 308.816406 C 235.324219 307.871094 237.886719 306.320312 240.917969 304.027344 C 243.953125 301.738281 247.457031 298.703125 251.097656 294.726562 C 254.738281 290.75 258.445312 285.761719 261.679688 279.761719 C 263.367188 276.726562 264.714844 273.425781 265.996094 269.917969 L 265.996094 269.914062 C 266.265625 269.039062 266.535156 268.164062 266.804688 267.222656 C 266.871094 267 266.945312 266.773438 267.019531 266.542969 C 267.234375 265.867188 267.460938 265.164062 267.613281 264.457031 C 267.714844 263.988281 267.816406 263.5 267.917969 263.007812 C 268.015625 262.519531 268.117188 262.03125 268.21875 261.558594 C 268.28125 261.320312 268.324219 261.097656 268.371094 260.878906 C 268.429688 260.601562 268.480469 260.339844 268.558594 260.078125 C 268.589844 259.839844 268.625 259.589844 268.65625 259.335938 C 268.691406 259.082031 268.726562 258.828125 268.757812 258.59375 C 269.972656 250.707031 269.839844 242.011719 268.152344 233.382812 C 266.46875 224.753906 263.300781 216.261719 259.121094 208.304688 C 258.796875 207.738281 258.496094 207.144531 258.191406 206.542969 C 257.988281 206.144531 257.785156 205.742188 257.570312 205.339844 C 257.265625 204.832031 256.960938 204.34375 256.660156 203.855469 C 256.355469 203.367188 256.050781 202.878906 255.75 202.371094 C 255.445312 201.867188 255.140625 201.378906 254.839844 200.890625 C 254.535156 200.402344 254.230469 199.914062 253.929688 199.40625 C 253.699219 199.085938 253.46875 198.730469 253.257812 198.410156 C 253.164062 198.261719 253.070312 198.121094 252.984375 197.992188 L 252.109375 196.710938 L 250.289062 194.148438 L 248.332031 191.386719 L 244.960938 186.597656 C 240.582031 180.195312 236.535156 173.523438 233.234375 166.644531 C 229.929688 159.769531 227.234375 152.757812 225.210938 145.816406 C 223.257812 138.804688 221.910156 131.859375 221.167969 125.1875 C 220.425781 118.515625 220.222656 112.042969 220.492188 106.042969 C 220.695312 100.042969 221.371094 94.515625 222.109375 89.59375 C 222.851562 84.671875 223.796875 80.359375 224.671875 76.855469 C 225.546875 73.347656 226.359375 70.585938 226.964844 68.695312 Z M 226.964844 68.695312 " fill-opacity="1" fill-rule="evenodd"/></g></svg>