<svg width="116" height="34" viewBox="0 0 116 34" fill="none" xmlns="http://www.w3.org/2000/svg">
<circle cx="17" cy="17" r="16.5" fill="#5A0808" stroke="#5A0808"/>
<path d="M10.498 5C10.498 5 10.426 5.10342 10.2965 5.29647C10.1813 5.48952 10.0086 5.7722 9.83591 6.13762C9.6632 6.50303 9.47609 6.9374 9.33216 7.4476C9.18823 7.95091 9.07309 8.51627 9.04431 9.1299C9.01552 9.74352 9.0731 10.4054 9.24581 11.088C9.43292 11.7705 9.73516 12.4807 10.1813 13.1908C10.6275 13.901 11.232 14.6111 11.9661 15.3075C12.7001 16.0039 13.578 16.6795 14.5424 17.3276L15.2908 17.8103L15.7226 18.0929L16.1112 18.3549L16.3127 18.4859C16.3846 18.5273 16.4422 18.5825 16.5142 18.6307C16.6437 18.7341 16.7732 18.8307 16.9172 18.9341C17.0467 19.0375 17.1762 19.134 17.3058 19.2375C17.4209 19.3409 17.5361 19.4374 17.6512 19.5408C18.5723 20.3475 19.2776 21.2093 19.6518 22.0918C20.0404 22.9675 20.098 23.8569 19.8533 24.6704C19.8389 24.7187 19.8245 24.7739 19.8101 24.8221C19.7957 24.8704 19.7669 24.9255 19.7526 24.9738C19.7094 25.0703 19.6662 25.1737 19.623 25.2703C19.5798 25.3668 19.5223 25.4633 19.4647 25.5529C19.4071 25.6495 19.3639 25.7391 19.292 25.8287C19.0329 26.1873 18.7451 26.532 18.414 26.8423C17.752 27.4628 16.9747 27.973 16.2119 28.3867C15.4491 28.8003 14.7007 29.1175 14.0674 29.3519C13.4341 29.5932 12.8872 29.7518 12.5274 29.8552C12.3403 29.9104 12.1963 29.9448 12.0956 29.9655C11.9948 29.9862 11.9517 30 11.9517 30C11.9517 30 12.11 29.9173 12.369 29.7587C12.6281 29.6001 13.0167 29.3657 13.4485 29.0623C13.8803 28.759 14.384 28.3798 14.8446 27.9316C15.3196 27.4835 15.7657 26.9664 16.0968 26.3941C16.4278 25.8218 16.6437 25.2013 16.6149 24.5463C16.6005 23.8913 16.3846 23.2157 15.9385 22.54C15.4923 21.8643 14.8302 21.1886 13.9954 20.5336C13.8947 20.4509 13.7939 20.3682 13.6932 20.2854C13.578 20.2096 13.4773 20.1338 13.3621 20.051L13.0311 19.8166C12.9735 19.7752 12.9304 19.7408 12.8584 19.6994L12.6569 19.5684C12.1244 19.2237 11.5774 18.8789 11.0305 18.5273C9.92227 17.7827 8.95795 16.9898 8.18074 16.1624C7.40353 15.3351 6.82782 14.4801 6.468 13.6321C6.10818 12.7841 5.96425 11.9498 6.00743 11.1638C6.02182 10.9708 6.05061 10.7777 6.065 10.5847C6.10818 10.3916 6.13697 10.2055 6.18014 10.0262C6.23772 9.84694 6.29529 9.66768 6.35286 9.48842C6.42482 9.31605 6.4824 9.14368 6.56875 8.97821C6.88539 8.31633 7.28839 7.73028 7.73457 7.23387C8.16635 6.73056 8.62691 6.31688 9.04431 5.98593C9.4617 5.65499 9.82152 5.40678 10.0806 5.24821C10.2101 5.16547 10.3253 5.10342 10.3828 5.06895C10.4548 5.02068 10.498 5 10.498 5Z" fill="#FEE473"/>
<path d="M18.8395 5C18.8395 5 18.7505 5.09928 18.6319 5.28461C18.4985 5.46994 18.3206 5.74131 18.1278 6.08549C17.9351 6.42967 17.7276 6.85328 17.5645 7.33646C17.4014 7.81964 17.2531 8.36238 17.2087 8.95146C17.1494 9.54054 17.1938 10.176 17.3569 10.8312C17.52 11.4865 17.8165 12.1682 18.2464 12.8566C18.6912 13.5383 19.2842 14.2267 20.0107 14.9018C20.7371 15.5769 21.6267 16.2322 22.5903 16.861L23.3316 17.3309L23.7615 17.6023L24.1618 17.8538L24.3546 17.9796C24.4139 18.0193 24.488 18.0723 24.5621 18.1186C24.6955 18.2179 24.829 18.3105 24.9624 18.4098C25.0958 18.5091 25.2293 18.6018 25.3627 18.701C25.4813 18.8003 25.5851 18.8996 25.7037 18.9923C26.6229 19.7733 27.3197 20.6073 27.6903 21.4545C28.0609 22.3017 28.0906 23.1555 27.8237 23.9299C27.8089 23.9763 27.7941 24.0292 27.7793 24.0756C27.7496 24.1219 27.7348 24.1682 27.7051 24.2212C27.6606 24.3138 27.6162 24.4131 27.5717 24.5058C27.5272 24.5985 27.4531 24.6911 27.3938 24.7772C27.3345 24.8698 27.2752 24.9559 27.2159 25.0419C26.9342 25.3861 26.6377 25.7104 26.267 26.0083C25.5554 26.5974 24.74 27.0871 23.9395 27.4777C23.1389 27.8682 22.3679 28.166 21.7008 28.3911C21.0336 28.6161 20.4703 28.7683 20.0848 28.861C19.8921 28.9073 19.7438 28.9404 19.6401 28.9669C19.5363 28.9868 19.477 29 19.477 29C19.477 29 19.64 28.9206 19.9217 28.775C20.2034 28.6227 20.5889 28.4043 21.0633 28.1131C21.5229 27.8218 22.0418 27.4644 22.5458 27.0342C23.0499 26.6106 23.5243 26.1142 23.8801 25.5714C24.236 25.0287 24.4732 24.4264 24.4732 23.7976C24.4732 23.1688 24.2804 22.5201 23.8357 21.8649C23.4057 21.2096 22.7386 20.5609 21.9084 19.9189C21.8046 19.8395 21.7008 19.7601 21.597 19.6806C21.4932 19.6078 21.3746 19.5284 21.2709 19.4556L20.9447 19.2306C20.8854 19.1908 20.8409 19.1577 20.7816 19.118L20.5741 18.9923C20.0255 18.6547 19.4918 18.3172 18.9432 17.9862C17.8313 17.2648 16.8529 16.4903 16.0819 15.6961C15.311 14.8952 14.7476 14.0678 14.4066 13.2537C14.0656 12.4396 13.947 11.6321 14.0212 10.8776C14.0508 10.6922 14.0805 10.5069 14.1101 10.3216C14.1546 10.1429 14.1991 9.96415 14.2436 9.78544C14.3029 9.61335 14.3622 9.44126 14.4363 9.27579C14.5104 9.11031 14.5846 8.94484 14.6735 8.78599C15.0145 8.1572 15.4593 7.59459 15.9337 7.11804C16.4081 6.64148 16.8825 6.24435 17.3273 5.92664C17.7572 5.60894 18.1575 5.37728 18.4244 5.22504C18.5578 5.14562 18.6764 5.09266 18.7505 5.05295C18.795 5.01986 18.8395 5 18.8395 5Z" fill="#FEE473"/>
<path d="M55.5343 18.515H58.6843V20.615C58.6843 25.55 56.2343 28.35 51.9293 28.35C47.6243 28.35 45.1743 25.55 45.1743 20.615V10.92C45.1743 5.915 47.2043 3.185 50.9493 3.185C53.6093 3.185 55.2193 4.585 55.6743 7.35H55.8843V3.535H58.6843V13.02H55.5343V11.165C55.5343 8.155 54.0293 6.195 51.7543 6.195C49.7243 6.195 48.5343 7.77 48.5343 10.465V21.07C48.5343 23.835 49.7593 25.34 52.0343 25.34C54.3093 25.34 55.5343 23.835 55.5343 21.07V18.515ZM69.5103 28V25.06H69.3003C68.8103 27.125 67.3753 28.35 65.2403 28.35C62.3003 28.35 60.4803 26.005 60.4803 22.925C60.4803 19.67 62.5103 17.22 67.7603 17.22H69.5103V15.435C69.5103 12.075 67.8303 11.795 66.6753 11.795C65.5203 11.795 63.9103 12.075 63.9103 15.295V16.065H60.8303V15.295C60.8303 10.745 63.2453 8.925 66.7103 8.925C70.1753 8.925 72.7303 10.78 72.7303 15.295V24.99H74.6553V28H69.5103ZM67.7253 19.67C64.8203 19.67 63.7003 20.93 63.7003 22.785C63.7003 24.815 64.9953 25.48 66.2553 25.48C68.6353 25.48 69.5103 23.065 69.5103 20.755V19.67H67.7253ZM75.7903 12.285V9.275H77.7153V8.12C77.7153 4.69 79.5353 2.555 82.7903 2.555C83.3853 2.555 84.2253 2.625 85.1353 2.905V5.915C84.5053 5.74 83.9103 5.67 83.3853 5.67C81.5653 5.67 80.9353 6.615 80.9353 8.12V9.275H85.1353V12.285H80.9353V24.99H82.8603V28H75.7903V24.99H77.7153V12.285H75.7903ZM89.1666 19.39V21.56C89.1666 24.15 90.1466 25.48 92.0716 25.48C93.9966 25.48 94.9766 24.15 94.9766 21.56V21.175H98.0566V21.385C98.0566 25.62 96.0616 28.35 91.9316 28.35C87.9416 28.35 85.9466 25.795 85.9466 20.615V16.66C85.9466 11.515 87.9766 8.925 92.0016 8.925C96.0266 8.925 98.0566 11.515 98.0566 16.66V19.39H89.1666ZM89.1666 16.94H94.9766V15.715C94.9766 13.16 93.9616 11.795 92.0716 11.795C90.1816 11.795 89.1666 13.16 89.1666 15.715V16.94ZM107.748 11.865C105.613 11.865 104.283 14.14 104.283 17.815V24.99H106.208V28H99.1383V24.99H101.063V12.285H99.1383V9.275H104.283V12.95H104.493C104.948 10.185 106.523 8.925 108.833 8.925C111.703 8.925 113.138 10.85 113.138 14.735V24.99H115.063V28H107.993V24.99H109.918V14.91C109.918 12.915 109.183 11.865 107.748 11.865Z" fill="#5A0808"/>
</svg>
