<svg width="166" height="41" viewBox="0 0 166 41" fill="none" xmlns="http://www.w3.org/2000/svg">
<path fill-rule="evenodd" clip-rule="evenodd" d="M32.4609 22.4426V35.8331L39.5947 31.7284V18.3379L32.4609 22.4426Z" fill="#5A0808"/>
<path opacity="0.5" fill-rule="evenodd" clip-rule="evenodd" d="M18.2687 8.33058L8.06344 14.2188L0.929688 10.114L18.2687 0.121094L30.4697 7.16993L23.3642 11.2747L18.2687 8.33058Z" fill="#5A0808"/>
<path opacity="0.5" fill-rule="evenodd" clip-rule="evenodd" d="M20.8828 29.1164L32.4595 22.4424L39.5791 18.3235L32.4595 14.2188L20.8828 20.9211V29.1164Z" fill="#5A0808"/>
<path fill-rule="evenodd" clip-rule="evenodd" d="M0.929688 10.1143V30.1284L18.2687 40.1213V31.9119L8.06345 26.0237V14.219L0.929688 10.1143Z" fill="#5A0808"/>
<g clip-path="url(#clip0_309_955)">
<path d="M67.0309 28.5727C65.7661 29.0687 64.2285 29.2175 62.5917 29.2175C62.3437 29.2175 62.0957 29.2175 61.8477 29.1927C56.4661 28.9447 52.5477 25.7207 52.5477 20.0167C52.5477 14.2631 56.7389 10.7415 62.3437 10.7415C64.0549 10.7415 65.7165 11.0639 66.9565 11.6591L66.7333 15.8999C65.7165 15.4287 64.3029 15.0815 62.7653 15.0815C58.9709 15.0815 56.6645 17.1399 56.6645 20.2647C56.6645 23.2407 58.4501 25.1255 61.5005 25.4727C62.0461 25.5223 62.6413 25.5223 63.1869 25.4975V20.6863H67.0309V28.5727ZM69.5868 28.9199V15.4535H73.3564V17.2391H73.4556C74.15 15.8007 75.7868 15.1311 77.9692 15.1311L77.7212 19.5207C74.5468 19.3967 73.4308 20.6615 73.4308 23.7863V28.9199H69.5868ZM86.8527 20.3639C86.8527 19.5703 86.0591 19.0743 84.3975 19.0743C82.7855 19.0743 81.2727 19.5455 80.0823 20.0911L79.8095 16.2471C80.9751 15.6271 82.7359 15.1311 84.7943 15.1311C89.0103 15.1311 90.8207 17.0903 90.8207 20.7111V28.9199H86.9023V27.2831C85.9103 28.4735 84.7695 29.2423 82.7855 29.2423C80.5535 29.2423 78.9415 28.0767 78.9415 25.8199C78.9415 22.9431 81.2479 22.0999 84.1247 21.6287C85.2159 21.4303 85.8111 21.2815 86.3319 21.0831C86.7535 20.9095 86.8527 20.7111 86.8527 20.3639ZM86.9023 23.0671C86.5055 23.2655 85.8607 23.5135 85.0423 23.6871C83.7527 23.9847 82.9591 24.3071 82.9591 25.4231C82.9591 26.3159 83.7031 26.7375 84.6455 26.7375C85.7367 26.7375 86.5303 26.0679 86.9023 25.2495V23.0671ZM93.3939 33.6319V15.4535H97.1635V17.0655H97.2627C98.0315 15.8751 99.5443 15.1311 101.379 15.1311C105.025 15.1311 107.753 17.7351 107.753 22.1991C107.753 26.6631 104.802 29.2423 101.355 29.2423C99.6187 29.2423 98.0811 28.4735 97.3123 27.0599H97.2379V33.6319H93.3939ZM100.536 25.6959C102.322 25.6959 103.711 24.3071 103.711 22.3727C103.711 20.4383 102.322 19.0743 100.536 19.0743C98.7259 19.0743 97.3123 20.3639 97.3123 22.3727C97.3123 24.3567 98.7259 25.6959 100.536 25.6959ZM118.914 22.0751C118.914 20.2399 118.145 18.9999 116.335 18.9999C114.549 18.9999 113.731 20.2151 113.731 22.0999V28.9199H109.887V10.0719H113.656V17.0159H113.756C114.549 15.8503 115.764 15.1311 117.674 15.1311C121.022 15.1311 122.733 17.3631 122.733 20.6367V28.9199H118.914V22.0751ZM136.693 28.6471C135.503 29.0687 134.164 29.2423 132.701 29.2423C127.84 29.2423 124.74 26.7623 124.74 22.1247C124.74 18.1071 127.369 15.1311 131.411 15.1311C135.528 15.1311 137.586 18.3551 137.586 22.0007C137.586 22.5463 137.561 23.1415 137.462 23.5879H129.03C129.526 25.2991 131.064 26.0679 133.395 26.0679C134.536 26.0679 135.478 25.9191 136.371 25.5967L136.693 28.6471ZM131.461 18.7023C130.221 18.7023 129.105 19.4215 128.832 21.2319H133.965C133.891 19.8183 132.899 18.7023 131.461 18.7023ZM139.7 28.9199V15.4535H143.47V17.2391H143.569C144.263 15.8007 145.9 15.1311 148.083 15.1311L147.835 19.5207C144.66 19.3967 143.544 20.6615 143.544 23.7863V28.9199H139.7ZM149.151 28.9199V26.0183L155.177 19.1239H149.424V15.4535H159.865V18.9007L153.838 25.5719H159.989V28.9199H149.151Z" fill="#5A0808"/>
</g>
<defs>
<clipPath id="clip0_309_955">
<rect width="112.8" height="40" fill="white" transform="translate(52.3984)"/>
</clipPath>
</defs>
</svg>
