<svg width="164" height="41" viewBox="0 0 164 41" fill="none" xmlns="http://www.w3.org/2000/svg">
<path d="M11.8862 27.1136C7.55894 27.1136 0.800781 27.735 0.800781 21.4938C0.800781 18.3191 3.11 15.5654 6.42062 15.5654C17.2195 15.5654 25.9688 24.3147 25.9688 35.1136V35.2018C25.9688 38.3092 23.4564 40.8216 20.349 40.8216C14.2028 40.8216 14.7292 34.2679 14.7292 29.9787C14.7292 28.3919 13.4509 27.1136 11.8862 27.1136Z" fill="#5A0808"/>
<path d="M27.1146 11.8859C27.1146 7.55869 27.736 0.800527 21.4948 0.800527C20.9565 0.800527 15.5664 0.220747 15.5664 6.42036C15.5664 17.2193 24.3157 25.9686 35.1146 25.9686C38.2125 25.9686 40.8226 23.4837 40.8226 20.3487C40.8226 14.2025 34.2689 14.7289 29.9796 14.7289C28.3928 14.7289 27.1146 13.4507 27.1146 11.8859Z" fill="#5A0808"/>
<g clip-path="url(#clip0_309_957)">
<path d="M59.5674 23.5972H56.765V29.4004H52.9954V11.594H59.5674C63.9074 11.594 66.6106 13.6524 66.6106 17.5212C66.6106 21.39 63.9074 23.5972 59.5674 23.5972ZM59.5426 14.7684H56.765V20.4228H59.5426C61.6754 20.4228 62.8658 19.3068 62.8658 17.546C62.8658 15.7852 61.6754 14.7684 59.5426 14.7684ZM72.9431 29.4004H69.1735V11.594H76.1423C80.6311 11.594 83.2351 13.6772 83.2351 17.3724C83.2351 19.778 81.7471 21.6876 79.2175 22.5308L83.8055 29.4004H79.3167L75.2991 23.1012H72.9431V29.4004ZM72.9431 14.7188V20.0012H75.9687C78.2503 20.0012 79.4655 19.1084 79.4655 17.3724C79.4655 15.6116 78.2503 14.7188 75.9687 14.7188H72.9431ZM98.1292 26.1268V29.4004H86.1508V11.594H97.9556V14.8676H89.9204V18.6124H97.2116V21.8612H89.9204V26.1268H98.1292ZM112.553 29.4004H101.045V11.594H104.815V26.0028H112.553V29.4004ZM129.142 11.594V22.63C129.142 26.846 126.464 29.7724 121.826 29.7724C117.114 29.7724 114.486 26.846 114.486 22.63V11.594H118.255V22.7044C118.255 24.9116 119.322 26.3996 121.826 26.3996C124.306 26.3996 125.373 24.9116 125.373 22.7044V11.594H129.142ZM139.072 29.4004H132.748V11.594H139.072C144.726 11.594 148.148 15.2148 148.148 20.398C148.148 25.5812 144.602 29.4004 139.072 29.4004ZM136.517 14.8428V26.1516H138.873C142.42 26.1516 144.28 24.0932 144.28 20.398C144.28 16.8516 142.42 14.8428 138.873 14.8428H136.517ZM162.745 26.1268V29.4004H150.766V11.594H162.571V14.8676H154.536V18.6124H161.827V21.8612H154.536V26.1268H162.745Z" fill="#5A0808"/>
</g>
<defs>
<clipPath id="clip0_309_957">
<rect width="110.4" height="40" fill="white" transform="translate(53 1)"/>
</clipPath>
</defs>
</svg>
