<svg width="182" height="40" viewBox="0 0 182 40" fill="none" xmlns="http://www.w3.org/2000/svg">
<path d="M40.2907 9.64996C40.7917 7.68442 39.6044 5.68488 37.6389 5.18386C35.6734 4.68284 33.6738 5.87007 33.1728 7.83561C32.6718 9.80115 33.859 11.8007 35.8246 12.3017C37.7901 12.8027 39.7896 11.6155 40.2907 9.64996Z" fill="#5A0808"/>
<path d="M27.955 6.35761C31.3491 2.12237 25.3982 -2.13452 22.2883 1.74521C22.1138 1.9201 1.94741 26.7734 1.81093 26.9804C-1.77253 31.4517 3.9283 36.0208 7.47763 31.5928C7.65196 31.4178 27.8186 6.56445 27.955 6.35761Z" fill="#5A0808"/>
<path d="M32.3959 19.8892C35.6531 15.8251 29.9524 11.256 26.7309 15.2754C26.5549 15.4514 12.8555 32.3951 12.7179 32.6037C9.43926 36.85 15.1398 41.419 18.3829 37.2176C18.5589 37.0416 32.2585 20.0979 32.3959 19.8892Z" fill="#5A0808"/>
<path d="M7.24388 12.1714C9.13964 11.4501 10.0917 9.32857 9.37042 7.4328C8.64912 5.53704 6.52756 4.58496 4.6318 5.30626C2.73604 6.02757 1.78395 8.14912 2.50526 10.0449C3.22657 11.9406 5.34812 12.8927 7.24388 12.1714Z" fill="#5A0808"/>
<g clip-path="url(#clip0_309_958)">
<path d="M57.9149 29.2793L52.4621 10.9497H54.3821L58.0941 23.5449C58.3501 24.4409 58.5805 25.3625 58.8109 26.5657C59.1181 25.2345 59.3741 24.4409 59.6557 23.5449L63.6493 10.9497H65.5693L69.5629 23.5449C69.8445 24.4665 70.1005 25.3881 70.3821 26.5657C70.6637 25.1577 70.8941 24.2617 71.0989 23.5705L74.8877 10.9497H76.7565L71.2525 29.2793H69.5117L64.5965 13.7145L59.6813 29.2793H57.9149ZM77.5803 29.2793H75.7115L82.4443 10.9497H84.7227L91.5323 29.2793H89.6123L87.8203 24.4153H79.3723L77.5803 29.2793ZM83.3403 13.5353L79.9355 22.8025H87.2315L83.8011 13.5353C83.7243 13.2793 83.5963 12.9721 83.5707 12.7929C83.5451 12.9465 83.4427 13.2793 83.3403 13.5353ZM96.5799 21.6249L90.3591 10.9497H92.4327L96.9639 18.8601C97.1687 19.2441 97.3223 19.5513 97.5015 19.9609C97.7319 19.5001 97.7319 19.5001 98.0647 18.8601L102.545 10.9497H104.567L98.4231 21.6249V29.2793H96.5799V21.6249ZM110.179 10.5657V26.2585H118.012V29.2793H106.902V10.5657H110.179ZM123.954 10.5657V29.2793H120.677V10.5657H123.954ZM131.327 29.2793H128.102V10.5657H131.353L140.134 23.8265V10.5657H143.359V29.2793H140.134L131.327 16.0185V29.2793ZM159.124 29.2793H147.502V10.5657H159.124V13.5865H150.779V18.3993H158.254V21.2921H150.779V26.2585H159.124V29.2793Z" fill="#5A0808"/>
</g>
<defs>
<clipPath id="clip0_309_958">
<rect width="128.8" height="40" fill="white" transform="translate(52.3984)"/>
</clipPath>
</defs>
</svg>
