<svg width="156" height="40" viewBox="0 0 156 40" fill="none" xmlns="http://www.w3.org/2000/svg">
<path fill-rule="evenodd" clip-rule="evenodd" d="M20.3908 38.8464C28.7045 38.8464 36.077 33.3562 38.43 25.3562C31.8868 26.4467 24.832 23.7362 20.3908 18.9248C15.9495 23.7362 8.8948 26.4467 2.35156 25.3562C4.86137 33.513 12.0771 38.8464 20.3908 38.8464Z" fill="#5A0808"/>
<path opacity="0.5" fill-rule="evenodd" clip-rule="evenodd" d="M39.2134 21.4354C39.2134 12.6416 34.5368 4.57662 25.7232 1.98438C26.5326 6.841 25.1371 12.1377 22.5859 16.2589C26.8032 20.677 33.2225 22.9331 39.2134 21.4354Z" fill="#5A0808"/>
<path opacity="0.5" fill-rule="evenodd" clip-rule="evenodd" d="M18.0409 16.102C15.4265 12.0798 14.105 6.77644 14.9036 1.98438C6.16134 4.60706 1.57031 12.716 1.57031 21.4354C7.53371 22.9262 14.0206 20.7253 18.0409 16.102Z" fill="#5A0808"/>
<path fill-rule="evenodd" clip-rule="evenodd" d="M20.3902 12.808C21.6451 10.4551 22.2725 7.78843 22.2725 4.9649C22.2725 3.71 22.1157 2.4551 21.8019 1.2002C21.3313 1.2002 20.8608 1.2002 20.3902 1.2002C19.9196 1.2002 19.449 1.2002 18.9784 1.2002C18.6647 2.4551 18.5078 3.71 18.5078 4.9649C18.5078 7.78843 19.2921 10.4551 20.3902 12.808Z" fill="#5A0808"/>
<g clip-path="url(#clip0_309_953)">
<path d="M62.8296 23.5309C62.8296 22.6333 61.7736 22.3429 60.216 21.9469L57.972 21.3925C54.9096 20.6269 52.164 19.5181 52.164 15.8221C52.164 12.0997 55.4112 10.0405 59.3184 10.0405C62.7768 10.0405 64.968 11.0173 66.156 11.7037V16.4821C64.3872 15.3733 61.4832 14.3437 59.16 14.3437C57.7872 14.3437 56.9688 14.6869 56.9688 15.4789C56.9688 16.4029 58.0512 16.6933 59.8464 17.1685L61.8 17.6965C64.5456 18.4357 67.4496 19.4389 67.4496 23.2405C67.4496 26.8309 64.308 28.7845 60.1104 28.7845C56.8104 28.7845 54.144 27.7285 52.9296 26.8573V22.2373C54.7248 23.5573 57.9984 24.6397 60.4008 24.6397C62.2488 24.6397 62.8296 24.2437 62.8296 23.5309ZM71.6951 13.2349C69.9527 13.2349 68.8967 12.4429 68.8967 11.0965C68.8967 9.75011 69.9527 8.98451 71.6951 8.98451C73.4639 8.98451 74.4671 9.75011 74.4671 11.0965C74.4671 12.4429 73.4639 13.2349 71.6951 13.2349ZM69.5567 14.5285H73.7807V28.5205H69.5567V14.5285ZM89.7127 25.4845C89.7127 31.0021 86.3071 32.9557 82.3735 32.9557C80.1559 32.9557 78.2551 32.3221 77.0935 31.6093V27.3589C78.3871 28.3357 80.1031 28.9957 81.8983 28.9957C84.6967 28.9957 85.4887 27.7813 85.4887 26.1445V25.9861C84.5911 26.5669 83.4295 27.0157 81.8983 27.0157C78.5983 27.0157 76.0639 24.7981 76.0639 21.2605C76.0639 16.3765 79.9975 14.2645 83.7991 14.2645C86.4391 14.2645 88.3135 14.9509 89.7127 15.5053V25.4845ZM80.4463 20.6797C80.4463 22.6069 81.7399 23.2141 83.1391 23.2141C83.9575 23.2141 84.8023 23.0029 85.4887 22.7389V18.2773C84.9871 18.1453 84.4063 18.0397 83.7727 18.0397C81.9775 18.0397 80.4463 18.8317 80.4463 20.6797ZM99.3943 18.3565C98.3119 18.3565 97.2823 18.5941 96.5167 18.9109V28.5205H92.2927V14.5285H96.2527V16.1917C97.3615 15.1885 99.1567 14.2645 101.321 14.2645C104.78 14.2645 106.021 16.4821 106.021 19.5445V28.5205H101.797V20.6797C101.797 19.3333 101.189 18.3565 99.3943 18.3565ZM115.134 24.6925C116.216 24.6925 117.246 24.4549 118.011 24.1381V14.5285H122.235V28.5205H118.275V26.8573C117.166 27.8605 115.371 28.7845 113.206 28.7845C109.748 28.7845 108.507 26.5669 108.507 23.5045V14.5285H112.731V22.3693C112.731 23.7157 113.338 24.6925 115.134 24.6925ZM131.718 18.3565C130.741 18.3565 129.817 18.6205 129.104 18.9109V28.5205H124.88V14.5285H128.84V16.1917C129.923 15.1885 131.586 14.2645 133.645 14.2645C135.678 14.2645 136.892 15.1093 137.526 16.4821C138.555 15.3733 140.377 14.2645 142.621 14.2645C145.895 14.2645 147.056 16.4821 147.056 19.5445V28.5205H142.832V20.6797C142.832 19.3069 142.304 18.3565 140.694 18.3565C139.717 18.3565 138.767 18.6205 138.054 18.9109C138.08 19.1221 138.08 19.3333 138.08 19.5445V28.5205H133.856V20.6797C133.856 19.3069 133.328 18.3565 131.718 18.3565ZM151.822 28.9165C150.37 28.9165 149.208 27.7549 149.208 26.3029C149.208 24.8509 150.37 23.6629 151.822 23.6629C153.274 23.6629 154.462 24.8509 154.462 26.3029C154.462 27.7549 153.274 28.9165 151.822 28.9165Z" fill="#5A0808"/>
</g>
<defs>
<clipPath id="clip0_309_953">
<rect width="103.2" height="40" fill="white" transform="translate(52)"/>
</clipPath>
</defs>
</svg>
