<svg width="144" height="40" viewBox="0 0 144 40" fill="none" xmlns="http://www.w3.org/2000/svg">
<path fill-rule="evenodd" clip-rule="evenodd" d="M0.347367 22.6084C0.199219 22.6084 0.199219 22.6084 0.199219 22.6084C3.33907 44.9362 36.7448 44.7166 40.1992 22.6084C40.0511 22.6084 40.0511 22.6084 40.0511 22.6084C38.5696 22.6084 37.2363 22.7565 35.7548 23.0528C32.1335 39.1841 8.07448 39.318 4.79181 22.9047C3.31033 22.7565 1.82885 22.6084 0.347367 22.6084Z" fill="#5A0808"/>
<path fill-rule="evenodd" clip-rule="evenodd" d="M0.199219 16.8315H0.347367C1.82885 16.8315 3.16218 16.6833 4.64366 16.387C8.23414 0.393086 32.1247 0.0516129 35.4585 16.387C36.7918 16.6833 38.2733 16.8315 39.7548 16.8315H39.9029C37.0947 -5.63402 3.3232 -5.38349 0.199219 16.8315Z" fill="#5A0808"/>
<path fill-rule="evenodd" clip-rule="evenodd" d="M36.6428 19.6462C30.1243 18.7573 24.1983 15.3499 20.1983 10.0166C16.1983 15.3499 10.2724 18.7573 3.75391 19.6462C10.2724 20.5351 16.3465 24.0907 20.1983 29.424C24.1983 24.0907 30.1243 20.5351 36.6428 19.6462Z" fill="#5A0808"/>
<g clip-path="url(#clip0_309_954)">
<path d="M56.4057 28.7998V12.0478H60.3657V28.7998H56.4057ZM52.5657 12.0478H64.2057V15.2878H52.5657V12.0478ZM52.5657 25.5598H64.2057V28.7998H52.5657V25.5598ZM74.199 29.0878C72.791 29.0878 71.575 28.8078 70.551 28.2478C69.543 27.6878 68.767 26.8878 68.223 25.8478C67.695 24.8078 67.431 23.5678 67.431 22.1278C67.431 20.6558 67.711 19.3998 68.271 18.3598C68.847 17.3198 69.647 16.5278 70.671 15.9838C71.695 15.4398 72.903 15.1678 74.295 15.1678C75.511 15.1678 76.583 15.3838 77.511 15.8158C78.455 16.2478 79.199 16.8558 79.743 17.6398C80.303 18.4078 80.607 19.3278 80.655 20.3998H76.911C76.783 19.6638 76.495 19.1198 76.047 18.7678C75.615 18.3998 75.031 18.2158 74.295 18.2158C73.687 18.2158 73.143 18.3678 72.663 18.6718C72.199 18.9758 71.831 19.4158 71.559 19.9918C71.303 20.5678 71.175 21.2798 71.175 22.1278C71.175 23.3918 71.463 24.3678 72.039 25.0558C72.631 25.7438 73.351 26.0878 74.199 26.0878C74.695 26.0878 75.127 25.9998 75.495 25.8238C75.879 25.6478 76.199 25.3998 76.455 25.0798C76.711 24.7438 76.887 24.3678 76.983 23.9518H80.727C80.631 24.9918 80.295 25.8958 79.719 26.6638C79.143 27.4318 78.383 28.0318 77.439 28.4638C76.495 28.8798 75.415 29.0878 74.199 29.0878ZM89.6164 29.0878C88.1924 29.0878 86.9684 28.8078 85.9444 28.2478C84.9204 27.6878 84.1284 26.8878 83.5684 25.8478C83.0244 24.8078 82.7524 23.5678 82.7524 22.1278C82.7524 20.6718 83.0244 19.4318 83.5684 18.4078C84.1284 17.3678 84.9204 16.5678 85.9444 16.0078C86.9684 15.4478 88.1924 15.1678 89.6164 15.1678C91.7604 15.1678 93.4324 15.7838 94.6324 17.0158C95.8484 18.2478 96.4564 19.9518 96.4564 22.1278C96.4564 23.5678 96.1844 24.8078 95.6404 25.8478C95.0964 26.8878 94.3124 27.6878 93.2884 28.2478C92.2644 28.8078 91.0404 29.0878 89.6164 29.0878ZM89.6164 26.0638C90.5764 26.0638 91.3284 25.7118 91.8724 25.0078C92.4324 24.3038 92.7124 23.3438 92.7124 22.1278C92.7124 20.8958 92.4324 19.9358 91.8724 19.2478C91.3284 18.5438 90.5764 18.1918 89.6164 18.1918C88.6404 18.1918 87.8724 18.5438 87.3124 19.2478C86.7684 19.9358 86.4964 20.8958 86.4964 22.1278C86.4964 23.3438 86.7684 24.3038 87.3124 25.0078C87.8724 25.7118 88.6404 26.0638 89.6164 26.0638ZM107.842 28.7998V20.5678C107.842 19.8798 107.666 19.3278 107.314 18.9118C106.962 18.4958 106.498 18.2878 105.922 18.2878C105.266 18.2878 104.658 18.5118 104.098 18.9598C103.554 19.3918 102.978 20.1438 102.37 21.2158L101.842 18.0478C102.45 17.0078 103.186 16.2718 104.05 15.8398C104.914 15.3918 105.794 15.1678 106.69 15.1678C107.714 15.1678 108.586 15.3838 109.306 15.8158C110.042 16.2478 110.602 16.8478 110.986 17.6158C111.386 18.3838 111.586 19.2878 111.586 20.3278V28.7998H107.842ZM98.9378 28.7998V15.4558H102.562L102.682 17.8318V28.7998H98.9378ZM118.963 28.7998V15.4558H122.707V28.7998H118.963ZM114.643 28.7998V25.7758H127.075V28.7998H114.643ZM116.323 18.4798V15.4558H120.835V18.4798H116.323ZM118.819 13.6798V10.1758H122.803V13.6798H118.819ZM136.637 29.0878C135.229 29.0878 134.013 28.8078 132.989 28.2478C131.981 27.6878 131.205 26.8878 130.661 25.8478C130.133 24.8078 129.869 23.5678 129.869 22.1278C129.869 20.6558 130.149 19.3998 130.709 18.3598C131.285 17.3198 132.085 16.5278 133.109 15.9838C134.133 15.4398 135.341 15.1678 136.733 15.1678C137.949 15.1678 139.021 15.3838 139.949 15.8158C140.893 16.2478 141.637 16.8558 142.181 17.6398C142.741 18.4078 143.045 19.3278 143.093 20.3998H139.349C139.221 19.6638 138.933 19.1198 138.485 18.7678C138.053 18.3998 137.469 18.2158 136.733 18.2158C136.125 18.2158 135.581 18.3678 135.101 18.6718C134.637 18.9758 134.269 19.4158 133.997 19.9918C133.741 20.5678 133.613 21.2798 133.613 22.1278C133.613 23.3918 133.901 24.3678 134.477 25.0558C135.069 25.7438 135.789 26.0878 136.637 26.0878C137.133 26.0878 137.565 25.9998 137.933 25.8238C138.317 25.6478 138.637 25.3998 138.893 25.0798C139.149 24.7438 139.325 24.3678 139.421 23.9518H143.165C143.069 24.9918 142.733 25.8958 142.157 26.6638C141.581 27.4318 140.821 28.0318 139.877 28.4638C138.933 28.8798 137.853 29.0878 136.637 29.0878Z" fill="#5A0808"/>
</g>
<defs>
<clipPath id="clip0_309_954">
<rect width="91.2" height="40" fill="white" transform="translate(52.1992)"/>
</clipPath>
</defs>
</svg>
