<svg width="129" height="40" viewBox="0 0 129 40" fill="none" xmlns="http://www.w3.org/2000/svg">
<path d="M26.8771 11.4592C33.8947 11.5077 39.6737 17.3782 39.5767 24.3635C39.4852 31.3219 33.7278 37.0146 26.7748 37.0308C19.7948 37.0469 13.9675 31.1711 14.0159 24.175C14.0644 17.1089 19.8272 11.4161 26.8771 11.4592ZM36.5176 24.2558C36.5284 18.8269 32.1336 14.4214 26.7317 14.4429C21.4321 14.4645 17.0696 18.8431 17.0158 24.1965C16.9565 29.48 21.3836 33.9555 26.6724 33.9717C32.1605 33.9932 36.5068 29.7062 36.5176 24.2558Z" fill="#5A0808"/>
<path d="M18.7086 39.088C11.4378 37.5208 5.83124 30.1423 5.60504 22.3599C5.36806 14.2974 10.8615 6.84892 18.6655 4.64076C25.8124 2.62111 34.5265 5.54018 37.5856 11.0875C29.4338 3.50089 16.5473 4.58229 10.5276 14.2489C6.03051 21.4712 7.1669 33.3361 18.7086 39.088Z" fill="#5A0808"/>
<path d="M15.7471 40C7.45849 38.2133 1.06706 29.802 0.809195 20.9301C0.539048 11.7389 6.80155 3.24774 15.698 0.730464C23.8454 -1.57192 33.7794 1.75579 37.2668 8.07969C27.9738 -0.568976 13.2833 0.663798 6.42088 11.6837C1.29423 19.917 2.58971 33.4428 15.7471 40Z" fill="#5A0808"/>
<path d="M37.2926 13.9156C29.1709 6.70942 19.3311 9.73621 15.1356 15.5798C12.4104 19.3821 11.6187 23.5668 12.7982 28.0532C13.9615 32.4641 16.8483 35.534 21.2915 37.7421C15.2595 36.6865 10.4015 30.7083 9.83604 24.1646C9.25977 17.4378 13.633 10.8187 20.1605 8.54596C26.4457 6.35396 33.8134 8.63213 37.2926 13.9156Z" fill="#5A0808"/>
<path d="M26.796 29.1193C29.4879 29.1193 31.6701 26.9371 31.6701 24.2452C31.6701 21.5533 29.4879 19.3711 26.796 19.3711C24.1041 19.3711 21.9219 21.5533 21.9219 24.2452C21.9219 26.9371 24.1041 29.1193 26.796 29.1193Z" fill="#5A0808"/>
<g clip-path="url(#clip0_195_147)">
<path d="M59.9764 28.7925C54.7268 28.7925 52.442 26.3717 52.442 22.8629V22.4005H55.3252V22.6997C55.3252 24.9573 56.2772 26.0997 60.0852 26.0997C62.778 26.0997 63.7572 25.3653 63.7572 23.6789C63.7572 22.0197 63.2132 21.4213 60.4116 20.8501L57.3108 20.2245C54.1828 19.6261 52.4964 18.1029 52.4964 15.2197C52.4964 12.5269 54.5908 10.0245 59.2964 10.0245C64.3284 10.0245 66.3412 12.8533 66.3412 16.0901V16.4165H63.458V16.1173C63.458 13.8869 62.4788 12.7173 59.2148 12.7173C56.522 12.7173 55.434 13.4789 55.434 15.0837C55.434 16.7429 56.1684 17.2053 58.6708 17.7493L61.7716 18.4021C65.1988 19.1093 66.6948 20.8229 66.6948 23.5701C66.6948 26.4261 64.6276 28.7925 59.9764 28.7925ZM71.6865 13.2885H68.7761L68.7489 10.2965H71.6865V13.2885ZM71.7137 28.5205H68.7761V14.9205H71.7137V28.5205ZM79.5279 27.2421C75.8015 27.2421 73.7343 24.7941 73.7343 20.9861C73.7343 17.1781 75.8287 14.7301 79.6367 14.7301C81.8127 14.7301 83.4991 15.6549 84.1519 17.2325H84.2607V15.0021H86.9535V27.5413C86.9535 31.5397 84.6143 33.4165 80.6703 33.4165C76.8351 33.4165 74.4415 31.5941 74.4415 28.3301H77.3519C77.3519 30.1797 78.0319 30.8053 80.7519 30.8053C83.3903 30.8053 84.0431 30.0437 84.0431 27.5413V24.8485H83.9343C83.3087 26.1541 81.7311 27.2421 79.5279 27.2421ZM76.6719 20.9861C76.6719 23.7605 77.8143 24.7397 80.3711 24.7397C82.5743 24.7397 84.0431 23.6789 84.0431 21.3941V20.5509C84.0431 18.2933 82.5743 17.2325 80.3167 17.2325C77.7871 17.2325 76.6719 18.2117 76.6719 20.9861ZM92.7815 28.5205H89.8439V15.0021H92.5367V17.5317H92.6455C93.2711 16.0901 94.7127 14.7301 97.3511 14.7301C100.86 14.7301 102.438 16.9605 102.438 20.0341V28.5205H99.4999V20.6869C99.4999 18.2661 98.7383 17.2597 96.2631 17.2597C93.8695 17.2597 92.7815 18.1845 92.7815 20.7141V28.5205ZM111.208 28.7925C106.747 28.7925 104.653 25.9637 104.653 21.7477C104.653 17.5589 107.155 14.7301 111.181 14.7301C114.826 14.7301 117.383 16.9061 117.383 20.6053C117.383 21.3125 117.301 22.0469 117.219 22.4549H107.4C107.509 24.9301 108.407 26.1813 111.235 26.1813C113.493 26.1813 114.363 25.4197 114.363 24.1957V23.9781H117.274V24.2229C117.274 26.9973 114.853 28.7925 111.208 28.7925ZM111.127 17.2053C108.57 17.2053 107.591 18.4021 107.427 20.4965H114.581C114.69 18.1845 113.439 17.2053 111.127 17.2053ZM125.252 28.5205C122.232 28.5205 120.655 27.4053 120.655 24.3589V17.4501H118.397V15.0021H120.709L121.335 11.6565H123.592V15.0021H127.672V17.4501H123.592V24.2229C123.592 25.6373 124.191 25.8821 126.013 25.8821H127.672V28.2757C127.101 28.4117 126.176 28.5205 125.252 28.5205Z" fill="#5A0808"/>
</g>
<defs>
<clipPath id="clip0_195_147">
<rect width="76" height="40" fill="white" transform="translate(52.1992)"/>
</clipPath>
</defs>
</svg>
