<svg width="189" height="40" viewBox="0 0 189 40" fill="none" xmlns="http://www.w3.org/2000/svg">
<path fill-rule="evenodd" clip-rule="evenodd" d="M15.2477 25V5L6.59766 10V30L23.8841 40L32.5342 35L15.2477 25Z" fill="#5A0808"/>
<path fill-rule="evenodd" clip-rule="evenodd" d="M23.8828 20L41.1692 30V20L32.5329 15V5L23.8828 0V20Z" fill="#5A0808"/>
<g clip-path="url(#clip0_309_956)">
<path d="M56.8312 27.1196H74.7112V29.6396H53.9032V13.2716H56.8312V27.1196ZM76.4154 23.6156C76.4154 19.2476 79.6794 17.3036 86.6634 17.3036C93.6714 17.3036 96.9114 19.2476 96.9114 23.6156C96.9114 27.9836 93.6714 29.9276 86.6634 29.9276C79.6794 29.9276 76.4154 27.9836 76.4154 23.6156ZM79.1514 23.6156C79.1514 26.4476 81.0714 27.5756 86.6634 27.5756C92.2554 27.5756 94.1754 26.4476 94.1754 23.6156C94.1754 20.8076 92.2554 19.6556 86.6634 19.6556C81.0714 19.6556 79.1514 20.8076 79.1514 23.6156ZM118.129 18.2156V27.7676C118.129 32.5196 115.177 34.2716 108.313 34.2716C105.745 34.2716 102.361 33.8876 99.8887 33.1676L100.513 31.0316C102.865 31.6556 105.577 32.0876 108.457 32.0876C113.881 32.0876 115.585 30.8396 115.489 27.7916L115.441 27.2156C112.945 28.2476 109.921 29.0396 106.777 29.0396C101.881 29.0396 99.3607 27.3356 99.3607 23.2796C99.3607 18.8396 102.961 17.3756 108.481 17.3756C112.201 17.3756 115.609 17.8076 118.129 18.2156ZM102.097 23.2556C102.097 25.8236 103.585 26.8796 106.993 26.8796C109.753 26.8796 112.609 26.3036 115.369 25.3676V20.1356C113.233 19.8476 110.473 19.6316 108.121 19.6316C104.353 19.6316 102.097 20.5676 102.097 23.2556ZM124.045 12.6476V15.8876H121.309V12.6476H124.045ZM121.309 29.6396V17.6156H124.045V29.6396H121.309ZM145.642 18.2156V33.9596H142.906V27.6716C140.362 28.8476 137.29 29.8796 134.098 29.8796C129.538 29.8796 126.97 28.0556 126.97 23.7356C126.97 18.9356 130.546 17.3756 135.922 17.3756C139.642 17.3756 143.122 17.7836 145.642 18.2156ZM129.706 23.6156C129.706 26.4476 131.194 27.5756 134.602 27.5756C137.362 27.5756 140.146 26.7836 142.906 25.7516V20.1356C140.77 19.8476 137.986 19.6316 135.634 19.6316C131.866 19.6316 129.706 20.6876 129.706 23.6156ZM148.609 24.1676V17.6156H151.345V23.8076C151.345 26.2316 152.833 27.5996 156.481 27.5996C158.497 27.5996 161.257 27.0236 164.209 26.0396V17.6156H166.945V29.6396H164.569L164.329 27.9116C161.761 28.9916 158.665 29.9276 155.617 29.9276C151.201 29.9276 148.609 28.2956 148.609 24.1676ZM179.775 27.7196C183.279 27.7196 186.231 27.1916 187.455 26.9276L188.031 28.9916C185.991 29.5196 182.631 29.9276 179.559 29.9276C172.983 29.9276 169.767 28.2716 169.767 23.6156C169.767 19.0556 173.247 17.3276 179.175 17.3276C184.623 17.3276 188.463 18.7196 188.463 22.9916C188.463 23.3996 188.415 24.0716 188.367 24.3356H172.455C172.791 27.0716 175.023 27.7196 179.775 27.7196ZM179.079 19.2716C174.807 19.2716 172.743 20.1356 172.455 22.7756H185.775C185.559 20.3996 183.999 19.2716 179.079 19.2716Z" fill="#5A0808"/>
</g>
<defs>
<clipPath id="clip0_309_956">
<rect width="136.8" height="40" fill="white" transform="translate(52.1992)"/>
</clipPath>
</defs>
</svg>
