<svg width="30" height="30" viewBox="0 0 30 30" fill="none" xmlns="http://www.w3.org/2000/svg">
<path d="M22.5953 7.40557C17.5714 2.3819 10.0775 1.70234 5.88985 5.88957C1.70196 10.0773 2.38217 17.5711 7.40584 22.5948C10.2161 25.4053 13.7989 26.8561 17.1444 26.8561C19.7788 26.8561 22.2661 25.9557 24.1111 24.1108C28.2989 19.9231 27.619 12.429 22.5953 7.40557ZM22.8682 22.868C22.7523 22.984 22.632 23.0938 22.5099 23.2006C22.1374 21.7528 21.6516 20.3355 19.9024 18.5863C17.9529 16.6371 16.4159 16.2562 14.7884 15.853C13.0822 15.4305 11.1487 14.9518 8.85339 12.6563C7.26295 11.066 6.55624 9.6898 6.12397 8.39896C6.41228 7.94073 6.7506 7.51594 7.1327 7.13242C7.24825 7.01684 7.36798 6.90742 7.48964 6.80095C7.86215 8.24864 8.34828 9.66534 10.0962 11.4135C12.0461 13.3631 13.5831 13.7438 15.2107 14.1467C17.0002 14.59 18.8503 15.0484 21.1452 17.3435C22.7232 18.9213 23.4411 20.3272 23.8738 21.6064C23.5862 22.0627 23.2489 22.4858 22.8682 22.868Z" fill="#5A0808"/>
</svg>
