<svg width="30" height="30" viewBox="0 0 30 30" fill="none" xmlns="http://www.w3.org/2000/svg">
<path d="M25.9375 16.8746C25.9375 13.9458 23.555 11.5621 20.625 11.5621H5.625C4.76375 11.5621 4.0625 12.2633 4.0625 13.1246V22.4996C4.0625 25.5221 5.7275 27.1871 8.75 27.1871H16.25C19.2725 27.1871 20.9375 25.5221 20.9375 22.4996V22.1558C23.72 21.9908 25.9375 19.6971 25.9375 16.8746ZM20.9375 20.2808V13.4696C22.685 13.6308 24.0625 15.0871 24.0625 16.8758C24.0625 18.6646 22.685 20.1196 20.9375 20.2808ZM14.7713 6.72207C13.8275 5.77207 13.8275 4.22832 14.7713 3.27832L14.9587 3.08957C15.325 2.72207 15.9187 2.72207 16.285 3.08582C16.6525 3.45082 16.655 4.04457 16.29 4.41207L16.1025 4.60082C15.8825 4.82082 15.8825 5.17957 16.1025 5.40082L16.4787 5.77957C17.4225 6.72957 17.4225 8.27332 16.4787 9.22332L16.2913 9.41207C16.1088 9.59582 15.8663 9.68832 15.6263 9.68832C15.3875 9.68832 15.1487 9.59707 14.9662 9.41582C14.5987 9.05082 14.5962 8.45707 14.9613 8.08957L15.1488 7.90082C15.3688 7.68082 15.3688 7.32207 15.1488 7.10082L14.7713 6.72207ZM8.52125 6.72207C7.5775 5.77207 7.5775 4.22832 8.52125 3.27832L8.70875 3.08957C9.075 2.72207 9.66875 2.72207 10.035 3.08582C10.4025 3.45082 10.405 4.04457 10.04 4.41207L9.8525 4.60082C9.6325 4.82082 9.6325 5.17957 9.8525 5.40082L10.2287 5.77957C11.1725 6.72957 11.1725 8.27332 10.2287 9.22332L10.0413 9.41207C9.85875 9.59582 9.61625 9.68832 9.37625 9.68832C9.1375 9.68832 8.89875 9.59707 8.71625 9.41582C8.34875 9.05082 8.34625 8.45707 8.71125 8.08957L8.89875 7.90082C9.11875 7.68082 9.11875 7.32207 8.89875 7.10082L8.52125 6.72207Z" fill="#5A0808"/>
</svg>
