<svg width="30" height="30" viewBox="0 0 30 30" fill="none" xmlns="http://www.w3.org/2000/svg">
<g clip-path="url(#clip0_224_520)">
<path d="M9.96341 17.4682C7.6213 19.8103 7.97473 23.9748 10.7515 26.7517C12.2944 28.2945 14.2655 29.0893 16.1145 29.0893C17.5933 29.0893 18.9943 28.5807 20.035 27.5398C22.3771 25.1977 22.0235 21.0332 19.2466 18.2566C16.4702 15.4797 12.3057 15.1261 9.96341 17.4682ZM18.7922 26.297C18.6774 26.4106 18.5546 26.5158 18.4248 26.6119C18.2459 25.9924 17.9809 25.3977 17.2502 24.667C16.3198 23.7364 15.6098 23.5607 14.788 23.3571C13.8472 23.124 12.7812 22.8601 11.5049 21.5836C11.0549 21.1452 10.6717 20.643 10.3677 20.0931C10.5344 19.5728 10.8217 19.0992 11.2062 18.7111C11.3212 18.598 11.4441 18.4933 11.574 18.3978C11.7527 19.0167 12.0178 19.6108 12.7478 20.3407C13.6784 21.2714 14.3884 21.4471 15.2102 21.6507C16.1509 21.8838 17.217 22.1477 18.4932 23.4242C18.9435 23.8627 19.3267 24.365 19.6307 24.9151C19.464 25.4354 19.1767 25.9088 18.7922 26.297Z" fill="#5A0808"/>
<path d="M14.9977 9.69733C13.4392 9.69222 11.8952 9.9963 10.4551 10.5919C9.01496 11.1876 7.70727 12.063 6.60774 13.1675C6.44347 13.3324 6.35133 13.5557 6.35156 13.7885C6.35179 14.0213 6.44436 14.2445 6.60896 14.4091C6.77356 14.5737 6.99674 14.6662 7.22951 14.6665C7.46229 14.6667 7.68565 14.5746 7.85057 14.4103C9.74772 12.5179 12.318 11.4551 14.9976 11.4551C17.6772 11.4551 20.2474 12.5179 22.1446 14.4103C22.3094 14.5751 22.5329 14.6677 22.766 14.6677C22.9991 14.6677 23.2226 14.5751 23.3874 14.4103C23.5522 14.2455 23.6448 14.022 23.6448 13.7889C23.6448 13.5558 23.5522 13.3323 23.3874 13.1675C22.2879 12.063 20.9803 11.1876 19.5402 10.592C18.1001 9.99633 16.5561 9.69224 14.9977 9.69733Z" fill="#5A0808"/>
<path d="M3.50349 10.0595C3.33868 10.2243 3.24609 10.4479 3.24609 10.6809C3.24609 10.914 3.33868 11.1375 3.50349 11.3023C3.6683 11.4672 3.89183 11.5597 4.12491 11.5597C4.35798 11.5597 4.58151 11.4672 4.74632 11.3023C10.4013 5.64825 19.6013 5.64847 25.2554 11.3023C25.3369 11.3842 25.4338 11.4492 25.5405 11.4936C25.6472 11.5379 25.7616 11.5608 25.8771 11.561C25.9927 11.5611 26.1071 11.5384 26.2139 11.4942C26.3207 11.4501 26.4177 11.3853 26.4994 11.3036C26.5811 11.2219 26.6459 11.1248 26.6901 11.0181C26.7342 10.9113 26.7569 10.7968 26.7568 10.6813C26.7567 10.5657 26.7338 10.4513 26.6894 10.3447C26.645 10.238 26.58 10.1411 26.4982 10.0595C20.1589 3.71985 9.84316 3.71964 3.50349 10.0595Z" fill="#5A0808"/>
<path d="M29.6036 6.95245C25.7086 3.05723 20.5218 0.912109 14.9989 0.912109C9.47587 0.912109 4.28912 3.05723 0.394116 6.95245C0.229307 7.11726 0.136718 7.34078 0.136719 7.57386C0.136719 7.80694 0.229309 8.03047 0.394119 8.19527C0.558928 8.36008 0.782458 8.45267 1.01553 8.45267C1.24861 8.45267 1.47214 8.36008 1.63695 8.19527C9.00466 0.827564 20.9931 0.827564 28.3608 8.19527C28.5256 8.36008 28.7491 8.45267 28.9822 8.45267C29.2153 8.45267 29.4388 8.36008 29.6036 8.19527C29.7684 8.03047 29.861 7.80694 29.861 7.57386C29.861 7.34078 29.7684 7.11726 29.6036 6.95245Z" fill="#5A0808"/>
</g>
<defs>
<clipPath id="clip0_224_520">
<rect width="30" height="30" fill="white"/>
</clipPath>
</defs>
</svg>
